<?xml version="1.0" encoding="utf-8"?>
<!-- Generator: Adobe Illustrator 16.0.0, SVG Export Plug-In . SVG Version: 6.00 Build 0)  -->
<!DOCTYPE svg PUBLIC "-//W3C//DTD SVG 1.1//EN" "http://www.w3.org/Graphics/SVG/1.1/DTD/svg11.dtd">
<svg version="1.1" id="Layer_1" xmlns="http://www.w3.org/2000/svg" xmlns:xlink="http://www.w3.org/1999/xlink" x="0px" y="0px"
	 width="29.067px" height="29.067px" viewBox="0 0 29.067 29.067" enable-background="new 0 0 29.067 29.067" xml:space="preserve">
<path fill-rule="evenodd" clip-rule="evenodd" fill="#EB504C" d="M3.73,0h21.605c2.053,0,3.731,1.679,3.731,3.731v21.605
	c0,2.052-1.679,3.731-3.731,3.731H3.73c-2.052,0-3.73-1.679-3.73-3.731V3.731C0,1.679,1.679,0,3.73,0L3.73,0z M21.174,3.23
	c-0.719,0-1.309,0.589-1.309,1.308V7.67c0,0.72,0.59,1.309,1.309,1.309h3.285c0.721,0,1.31-0.588,1.31-1.309V4.538
	c0-0.719-0.589-1.308-1.31-1.308H21.174L21.174,3.23z M25.781,12.292h-2.559c0.242,0.791,0.373,1.627,0.373,2.494
	c0,4.835-4.045,8.754-9.034,8.754c-4.99,0-9.036-3.919-9.036-8.754c0-0.867,0.132-1.704,0.373-2.494H3.23v12.279
	c0,0.635,0.519,1.156,1.154,1.156h20.241c0.636,0,1.155-0.521,1.155-1.156V12.292L25.781,12.292z M14.562,8.814
	c-3.225,0-5.839,2.533-5.839,5.656c0,3.125,2.614,5.657,5.839,5.657c3.224,0,5.838-2.532,5.838-5.657
	C20.399,11.347,17.785,8.814,14.562,8.814z"/>
</svg>
