<?xml version="1.0" encoding="utf-8"?>
<!-- Generator: Adobe Illustrator 16.0.0, SVG Export Plug-In . SVG Version: 6.00 Build 0)  -->
<!DOCTYPE svg PUBLIC "-//W3C//DTD SVG 1.1//EN" "http://www.w3.org/Graphics/SVG/1.1/DTD/svg11.dtd">
<svg version="1.1" id="Layer_1" xmlns="http://www.w3.org/2000/svg" xmlns:xlink="http://www.w3.org/1999/xlink" x="0px" y="0px"
	 width="35px" height="35px" viewBox="0 0 35 35" enable-background="new 0 0 35 35" xml:space="preserve">
<circle cx="17.5" cy="17.5" r="17.258"/>
<g>
	<g>
		<path fill="#FFFFFF" d="M9.036,10.522c-0.41,0-0.743,0.333-0.743,0.743c0,0.409,0.333,0.742,0.743,0.742h17.219
			c0.409,0,0.742-0.333,0.742-0.742c0-0.41-0.333-0.743-0.742-0.743H9.036z"/>
	</g>
	<g>
		<path fill="#FFFFFF" d="M8.938,16.661c-0.409,0-0.742,0.333-0.742,0.742c0,0.41,0.333,0.744,0.742,0.744h17.22
			c0.409,0,0.742-0.333,0.742-0.744c0-0.409-0.333-0.742-0.742-0.742H8.938z"/>
	</g>
	<g>
		<path fill="#FFFFFF" d="M8.842,22.848c-0.409,0-0.742,0.333-0.742,0.742s0.333,0.742,0.742,0.742h17.221
			c0.409,0,0.742-0.333,0.742-0.742s-0.333-0.742-0.742-0.742H8.842z"/>
	</g>
</g>
</svg>
