<?xml version="1.0" encoding="utf-8"?>
<!-- Generator: Adobe Illustrator 16.0.0, SVG Export Plug-In . SVG Version: 6.00 Build 0)  -->
<!DOCTYPE svg PUBLIC "-//W3C//DTD SVG 1.1//EN" "http://www.w3.org/Graphics/SVG/1.1/DTD/svg11.dtd">
<svg version="1.1" id="Layer_1" xmlns="http://www.w3.org/2000/svg" xmlns:xlink="http://www.w3.org/1999/xlink" x="0px" y="0px"
	 width="35.667px" height="35.667px" viewBox="0 0 35.667 35.667" enable-background="new 0 0 35.667 35.667" xml:space="preserve">
<circle cx="17.5" cy="17.5" r="17.258"/>
<g>
	<path fill="#FFFFFF" d="M10.935,22.967c-0.289,0.289-0.29,0.76,0,1.049c0.29,0.29,0.762,0.29,1.051,0.001l12.177-12.176
		c0.289-0.29,0.288-0.761-0.002-1.051c-0.289-0.29-0.759-0.29-1.049,0L10.935,22.967z"/>
</g>
<g>
	<path fill="#FFFFFF" d="M11.984,10.792c-0.289-0.289-0.76-0.29-1.049,0c-0.29,0.29-0.29,0.762-0.001,1.051L23.11,24.019
		c0.29,0.289,0.761,0.288,1.051-0.002c0.29-0.289,0.29-0.759,0-1.049L11.984,10.792z"/>
</g>
</svg>
