<?xml version="1.0" encoding="utf-8"?>
<!-- Generator: Adobe Illustrator 16.0.0, SVG Export Plug-In . SVG Version: 6.00 Build 0)  -->
<!DOCTYPE svg PUBLIC "-//W3C//DTD SVG 1.1//EN" "http://www.w3.org/Graphics/SVG/1.1/DTD/svg11.dtd">
<svg version="1.1" id="Layer_1" xmlns="http://www.w3.org/2000/svg" xmlns:xlink="http://www.w3.org/1999/xlink" x="0px" y="0px"
	 width="51.88px" height="44.395px" viewBox="0 0 51.88 44.395" enable-background="new 0 0 51.88 44.395" xml:space="preserve">
<g>
	<path fill="#FFFFFF" d="M45.895,23.689c0,1-0.811,1.807-1.806,1.807H7.41c-0.998,0-1.805-0.807-1.805-1.807H5.581
		c0-0.996,0.831-1.805,1.829-1.805h36.679C45.084,21.885,45.895,22.693,45.895,23.689L45.895,23.689L45.895,23.689z"/>
	<path fill="#FFFFFF" d="M51.192,18.27c0,0.995-0.807,1.805-1.804,1.805H1.806C0.809,20.074,0,19.265,0,18.27l0,0
		c0-0.997,0.809-1.807,1.806-1.807h47.583C50.386,16.463,51.192,17.272,51.192,18.27L51.192,18.27L51.192,18.27z"/>
	<path fill="#FFFFFF" d="M51.192,12.958c0,0.998-0.807,1.806-1.804,1.806H1.806C0.809,14.764,0,13.956,0,12.958l0,0
		c0-0.998,0.809-1.805,1.806-1.805h47.583C50.386,11.153,51.192,11.96,51.192,12.958L51.192,12.958L51.192,12.958z"/>
	<path fill="#FFFFFF" d="M51.192,7.329c0,0.997-0.807,1.805-1.804,1.805H1.806C0.809,9.134,0,8.326,0,7.329l0,0
		c0-0.998,0.809-1.807,1.806-1.807h47.583C50.386,5.522,51.192,6.331,51.192,7.329L51.192,7.329L51.192,7.329z"/>
	<path fill="#FFFFFF" d="M45.895,1.808c0,0.996-0.811,1.804-1.806,1.804H7.41c-0.998,0-1.805-0.808-1.805-1.804l0,0
		C5.605,0.81,6.412,0,7.41,0h36.679C45.084,0,45.895,0.81,45.895,1.808L45.895,1.808L45.895,1.808z"/>
	<path fill="#FFFFFF" d="M45.895,18.269c0,0.996-0.811,1.806-1.806,1.806H7.41c-0.998,0-1.805-0.81-1.805-1.806l0,0
		c0-0.998,0.807-1.806,1.805-1.806h36.679C45.084,16.463,45.895,17.271,45.895,18.269L45.895,18.269L45.895,18.269z"/>
	<path fill="#FFFFFF" d="M45.895,12.949c0,0.998-0.811,1.806-1.806,1.806H7.41c-0.998,0-1.805-0.808-1.805-1.806l0,0
		c0-0.996,0.807-1.806,1.805-1.806h36.679C45.084,11.144,45.895,11.953,45.895,12.949L45.895,12.949L45.895,12.949z"/>
	<path fill="#FFFFFF" d="M45.895,7.313c0,0.998-0.811,1.806-1.806,1.806H7.41c-0.998,0-1.805-0.808-1.805-1.806l0,0
		c0-0.997,0.807-1.806,1.805-1.806h36.679C45.084,5.508,45.895,6.316,45.895,7.313L45.895,7.313L45.895,7.313z"/>
	<path fill="#FFFFFF" d="M40.486,1.808c0,0.996-0.808,1.804-1.805,1.804H13.106c-0.995,0-1.805-0.808-1.805-1.804l0,0
		C11.302,0.81,12.111,0,13.106,0h25.575C39.679,0,40.486,0.81,40.486,1.808L40.486,1.808L40.486,1.808z"/>
	<path fill="#FFFFFF" d="M40.486,23.688c0,0.999-0.808,1.807-1.805,1.807H13.106c-0.995,0-1.805-0.808-1.805-1.807l0,0
		c0-0.996,0.81-1.804,1.805-1.804h25.575C39.679,21.884,40.486,22.691,40.486,23.688L40.486,23.688L40.486,23.688z"/>
	<path fill="#FFFFFF" d="M34.965,1.808c0,0.996-0.81,1.804-1.807,1.804H18.447c-1,0-1.807-0.808-1.807-1.804l0,0
		C16.641,0.81,17.447,0,18.447,0h14.711C34.155,0,34.965,0.81,34.965,1.808L34.965,1.808L34.965,1.808z"/>
	<path fill="#FFFFFF" d="M40.486,7.321c0,0.999-0.808,1.806-1.805,1.806H13.106c-0.995,0-1.805-0.807-1.805-1.806l0,0
		c0-0.998,0.81-1.805,1.805-1.805h25.575C39.679,5.517,40.486,6.323,40.486,7.321L40.486,7.321L40.486,7.321z"/>
	<path fill="#FFFFFF" d="M40.486,12.945c0,0.997-0.808,1.807-1.805,1.807H13.106c-0.995,0-1.805-0.81-1.805-1.807l0,0
		c0-0.998,0.81-1.806,1.805-1.806h25.575C39.679,11.14,40.486,11.947,40.486,12.945L40.486,12.945L40.486,12.945z"/>
	<path fill="#FFFFFF" d="M40.486,18.262c0,0.996-0.808,1.805-1.805,1.805H13.106c-0.995,0-1.805-0.809-1.805-1.805l0,0
		c0-0.998,0.81-1.807,1.805-1.807h25.575C39.679,16.455,40.486,17.264,40.486,18.262L40.486,18.262L40.486,18.262z"/>
	<path fill="#FFFFFF" d="M34.965,23.689c0,0.999-0.81,1.807-1.807,1.807H18.447c-1,0-1.807-0.808-1.807-1.807l0,0
		c0-0.996,0.807-1.805,1.807-1.805h14.711C34.155,21.885,34.965,22.693,34.965,23.689L34.965,23.689L34.965,23.689z"/>
	<path fill="#FFFFFF" d="M35.554,33.418v0.027v6.992h2.565c0,0,0-1.423,0-2.715c0.997,0,10.115,0,10.115,0l0.074-0.008
		c2.665-0.303,3.571-2.479,3.571-4.067c0-0.082-0.008-0.16-0.012-0.239c-0.001-2.914-2.195-4.029-3.673-4.066h-8.209
		C36.861,29.342,35.623,31.779,35.554,33.418L35.554,33.418z M39.986,31.907c0,0,8.049,0,8.134,0
		c0.446,0.029,1.182,0.265,1.182,1.504v0.041l0.007,0.061c0.002,0.051,0.004,0.108,0.004,0.164c0,0.559-0.197,1.34-1.255,1.48
		c-0.194,0-8.952,0-9.938,0c0-0.599,0-1.608,0-1.633C38.158,33.027,38.413,31.907,39.986,31.907L39.986,31.907z M51.868,33.408
		v0.003l-0.005-0.112C51.867,33.334,51.867,33.371,51.868,33.408L51.868,33.408z"/>
	<path fill="#FFFFFF" d="M16.609,33.299c0.002,0.035,0.002,0.072,0.004,0.109l0.002,0.003L16.609,33.299L16.609,33.299z
		 M16.624,33.647c0-0.082-0.005-0.16-0.011-0.239c0-2.914-2.197-4.029-3.675-4.066H4.73c-3.125,0-4.363,2.438-4.433,4.076v0.027
		v6.992h2.565c0,0,0-1.423,0-2.715h9.292l1.407,2.58h2.906l-1.702-3.149C16.12,36.334,16.624,34.828,16.624,33.647L16.624,33.647z
		 M12.802,35.157H2.863v-1.633c0.036-0.497,0.295-1.617,1.867-1.617c0,0,8.049,0,8.134,0c0.446,0.029,1.183,0.265,1.183,1.504v0.041
		l0.006,0.061c0.004,0.051,0.005,0.108,0.005,0.164C14.058,34.235,13.861,35.017,12.802,35.157L12.802,35.157z"/>
	<polygon fill="#FFFFFF" points="34.23,29.463 17.938,29.463 17.938,32.027 24.77,32.027 24.77,40.378 27.337,40.378 27.337,32.027 
		34.23,32.027 34.23,29.463 	"/>
	<path fill="#FFFFFF" d="M29.611,44.386v-1.925h1.46c0.149,0,0.274,0.057,0.376,0.17s0.151,0.252,0.151,0.416
		c0,0.162-0.05,0.303-0.151,0.418c-0.102,0.111-0.227,0.169-0.376,0.169h-0.982v0.752H29.611L29.611,44.386z M30.089,43.107h0.982
		c0.038,0,0.059-0.019,0.059-0.059c0-0.041-0.021-0.062-0.059-0.062h-0.982V43.107L30.089,43.107z"/>
	<path fill="#FFFFFF" d="M33.654,42.617c0.088,0.1,0.134,0.221,0.134,0.368v0.875c0,0.146-0.046,0.272-0.134,0.372
		c-0.088,0.102-0.198,0.153-0.328,0.153h-1.063c-0.125,0-0.235-0.052-0.325-0.153c-0.091-0.1-0.136-0.226-0.136-0.372v-0.875
		c0-0.147,0.045-0.269,0.136-0.368c0.09-0.105,0.2-0.156,0.325-0.156h1.063C33.456,42.461,33.566,42.512,33.654,42.617
		L33.654,42.617z M32.279,42.987v0.871h1.036v-0.871H32.279L32.279,42.987z"/>
	<path fill="#FFFFFF" d="M36.035,44.199v0.187h-0.478v-0.188c0-0.138-0.039-0.259-0.116-0.366c-0.073-0.103-0.172-0.169-0.295-0.197
		h-0.621v0.752h-0.477v-1.925h1.456c0.146,0,0.274,0.057,0.376,0.17c0.102,0.115,0.154,0.252,0.154,0.418
		c0,0.191-0.071,0.349-0.216,0.468C35.964,43.717,36.035,43.945,36.035,44.199L36.035,44.199z M34.525,43.107h0.979
		c0.038,0,0.058-0.019,0.058-0.059c0-0.041-0.02-0.062-0.058-0.062h-0.979V43.107L34.525,43.107z"/>
	<polygon fill="#FFFFFF" points="36.997,44.386 36.997,42.987 36.242,42.987 36.242,42.461 38.228,42.461 38.228,42.987 
		37.473,42.987 37.473,44.386 36.997,44.386 	"/>
	<path fill="#FFFFFF" d="M40.428,43.86c0,0.146-0.043,0.272-0.132,0.372c-0.089,0.102-0.197,0.153-0.327,0.153h-1.065
		c-0.124,0-0.232-0.052-0.325-0.153c-0.091-0.1-0.136-0.226-0.136-0.372v-1.399h0.479v1.397h1.038v-1.397h0.469V43.86L40.428,43.86z
		"/>
	<path fill="#FFFFFF" d="M42.546,42.617c0.084,0.1,0.132,0.223,0.132,0.37h-1.51v0.871h1.039v-0.225h-0.861v-0.526h1.332v0.753
		c0,0.146-0.048,0.272-0.132,0.372c-0.091,0.102-0.2,0.153-0.328,0.153h-1.066c-0.126,0-0.234-0.052-0.323-0.153
		c-0.093-0.1-0.138-0.226-0.138-0.372v-0.875c0-0.147,0.045-0.269,0.138-0.368c0.089-0.105,0.197-0.156,0.323-0.156h1.066
		C42.346,42.461,42.455,42.512,42.546,42.617L42.546,42.617z"/>
	<path fill="#FFFFFF" d="M44.923,43.86c0,0.146-0.043,0.272-0.132,0.372c-0.088,0.102-0.199,0.153-0.329,0.153h-1.063
		c-0.126,0-0.235-0.052-0.325-0.153c-0.092-0.1-0.136-0.226-0.136-0.372v-1.399h0.478v1.397h1.036v-1.397h0.471V43.86L44.923,43.86z
		"/>
	<path fill="#FFFFFF" d="M45.638,44.386c-0.127,0-0.234-0.052-0.327-0.153c-0.089-0.1-0.135-0.226-0.135-0.372v-0.875
		c0-0.147,0.046-0.269,0.135-0.368c0.093-0.105,0.2-0.156,0.327-0.156h1.526v0.526h-1.513v0.12h1.513v0.526h-1.513v0.225h1.513
		v0.527H45.638L45.638,44.386z"/>
	<path fill="#FFFFFF" d="M48.822,43.858c0.027,0,0.05-0.013,0.07-0.033c0.021-0.022,0.031-0.048,0.031-0.081
		c0-0.031-0.011-0.058-0.029-0.08c-0.018-0.02-0.044-0.03-0.072-0.03h-0.885c-0.146,0-0.272-0.058-0.374-0.169
		c-0.102-0.115-0.156-0.256-0.156-0.418c0-0.164,0.055-0.303,0.156-0.416s0.228-0.17,0.374-0.17h1.457v0.526h-1.457
		c-0.038,0-0.056,0.021-0.056,0.062c0,0.04,0.018,0.059,0.056,0.059h0.885c0.157,0,0.29,0.063,0.405,0.189
		c0.111,0.123,0.167,0.272,0.167,0.45c0,0.177-0.056,0.327-0.167,0.45c-0.111,0.125-0.248,0.188-0.405,0.188h-1.415v-0.527H48.822
		L48.822,43.858z"/>
	<path fill="#FFFFFF" d="M51.63,44.386h-0.466v-0.752h-1.04v0.752h-0.478v-1.4c0-0.147,0.044-0.269,0.137-0.368
		c0.092-0.105,0.2-0.156,0.326-0.156h1.063c0.129,0,0.239,0.051,0.324,0.156c0.092,0.1,0.133,0.221,0.133,0.368V44.386L51.63,44.386
		z M51.164,42.987h-1.04v0.12h1.04V42.987L51.164,42.987z"/>
	<path fill="#FFFFFF" d="M2.138,44.199v0.187H1.664v-0.188c0-0.138-0.037-0.259-0.115-0.366c-0.075-0.103-0.172-0.169-0.294-0.197
		H0.63v0.752H0.154v-1.925h1.455c0.147,0,0.272,0.057,0.377,0.17c0.103,0.115,0.151,0.252,0.151,0.418
		c0,0.191-0.07,0.349-0.213,0.468C2.067,43.717,2.138,43.945,2.138,44.199L2.138,44.199z M0.63,43.107h0.979
		c0.041,0,0.062-0.019,0.062-0.059c0-0.041-0.021-0.062-0.062-0.062H0.63V43.107L0.63,43.107z"/>
	<path fill="#FFFFFF" d="M4.385,44.386H3.912v-0.752H2.875v0.752H2.398v-1.4c0-0.147,0.045-0.269,0.134-0.368
		c0.092-0.105,0.199-0.156,0.326-0.156h1.065c0.129,0,0.238,0.051,0.325,0.156c0.091,0.1,0.136,0.221,0.136,0.368V44.386
		L4.385,44.386z M3.912,42.987H2.875v0.12h1.037V42.987L3.912,42.987z"/>
	<path fill="#FFFFFF" d="M6.503,44.232c-0.09,0.102-0.198,0.153-0.33,0.153H4.65v-1.925h1.522c0.132,0,0.24,0.051,0.33,0.156
		c0.089,0.1,0.134,0.221,0.134,0.368v0.875C6.637,44.007,6.592,44.133,6.503,44.232L6.503,44.232z M6.165,42.987H5.127v0.871h1.038
		V42.987L6.165,42.987z"/>
	<polygon fill="#FFFFFF" points="6.938,44.386 6.938,42.461 7.407,42.461 7.407,44.386 6.938,44.386 	"/>
	<path fill="#FFFFFF" d="M9.554,42.617c0.093,0.1,0.137,0.221,0.137,0.368v0.875c0,0.146-0.044,0.272-0.137,0.372
		c-0.084,0.102-0.195,0.153-0.323,0.153H8.164c-0.125,0-0.233-0.052-0.324-0.153c-0.087-0.1-0.136-0.226-0.136-0.372v-0.875
		c0-0.147,0.049-0.269,0.136-0.368c0.091-0.105,0.199-0.156,0.324-0.156H9.23C9.358,42.461,9.47,42.512,9.554,42.617L9.554,42.617z
		 M8.182,42.987v0.871h1.039v-0.871H8.182L8.182,42.987z"/>
	<polygon fill="#FFFFFF" points="10.664,44.386 10.664,42.987 9.903,42.987 9.903,42.461 11.89,42.461 11.89,42.987 11.134,42.987 
		11.134,44.386 10.664,44.386 	"/>
	<path fill="#FFFFFF" d="M12.553,44.386c-0.125,0-0.234-0.052-0.327-0.153c-0.089-0.1-0.134-0.226-0.134-0.372v-0.875
		c0-0.147,0.045-0.269,0.134-0.368c0.093-0.105,0.202-0.156,0.327-0.156h1.527v0.526h-1.514v0.12h1.514v0.526h-1.514v0.225h1.514
		v0.527H12.553L12.553,44.386z"/>
	<path fill="#FFFFFF" d="M14.721,43.858h1.511v0.527h-1.524c-0.127,0-0.237-0.052-0.326-0.153c-0.09-0.1-0.137-0.226-0.137-0.372
		v-1.399h0.477V43.858L14.721,43.858z"/>
	<path fill="#FFFFFF" d="M16.851,44.386c-0.126,0-0.234-0.052-0.328-0.153c-0.089-0.1-0.134-0.226-0.134-0.372v-0.875
		c0-0.147,0.045-0.269,0.134-0.368c0.094-0.105,0.202-0.156,0.328-0.156h1.526v0.526h-1.513v0.12h1.513v0.526h-1.513v0.225h1.513
		v0.527H16.851L16.851,44.386z"/>
	<path fill="#FFFFFF" d="M20.563,42.461l-0.768,1.765c-0.041,0.111-0.114,0.169-0.229,0.169c-0.107,0-0.182-0.058-0.221-0.169
		l-0.775-1.765h0.527l0.469,1.076l0.474-1.076H20.563L20.563,42.461z"/>
	<polygon fill="#FFFFFF" points="20.805,44.386 20.805,42.461 21.277,42.461 21.277,44.386 20.805,44.386 	"/>
	<path fill="#FFFFFF" d="M22.982,43.858c0.029,0,0.05-0.013,0.071-0.033c0.018-0.022,0.03-0.048,0.03-0.081
		c0-0.031-0.013-0.058-0.03-0.08c-0.018-0.02-0.04-0.03-0.071-0.03h-0.884c-0.147,0-0.275-0.058-0.377-0.169
		c-0.102-0.115-0.154-0.256-0.154-0.418c0-0.164,0.053-0.303,0.154-0.416s0.229-0.17,0.377-0.17h1.455v0.526h-1.455
		c-0.036,0-0.053,0.021-0.053,0.062c0,0.04,0.017,0.059,0.053,0.059h0.884c0.158,0,0.291,0.063,0.403,0.189
		c0.114,0.123,0.168,0.272,0.168,0.45c0,0.177-0.054,0.327-0.168,0.45c-0.111,0.125-0.245,0.188-0.403,0.188h-1.415v-0.527H22.982
		L22.982,43.858z"/>
	<path fill="#FFFFFF" d="M25.792,44.386h-0.47v-0.752h-1.039v0.752h-0.478v-1.4c0-0.147,0.048-0.269,0.136-0.368
		c0.091-0.105,0.2-0.156,0.328-0.156h1.063c0.133,0,0.238,0.051,0.328,0.156c0.088,0.1,0.132,0.221,0.132,0.368V44.386
		L25.792,44.386z M25.322,42.987h-1.039v0.12h1.039V42.987L25.322,42.987z"/>
	<path fill="#FFFFFF" d="M27.912,42.617c0.091,0.1,0.135,0.221,0.135,0.368v0.875c0,0.146-0.044,0.272-0.135,0.372
		c-0.089,0.102-0.195,0.153-0.325,0.153h-1.064c-0.127,0-0.235-0.052-0.324-0.153c-0.093-0.1-0.141-0.226-0.141-0.372v-0.875
		c0-0.147,0.048-0.269,0.141-0.368c0.089-0.105,0.197-0.156,0.324-0.156h1.064C27.717,42.461,27.823,42.512,27.912,42.617
		L27.912,42.617z M26.536,42.987v0.871h1.039v-0.871H26.536L26.536,42.987z"/>
	<polygon fill="#FFFFFF" points="24.218,41.892 24.218,42.292 25.339,42.292 25.339,41.892 24.218,41.892 	"/>
</g>
</svg>
