<?xml version="1.0" encoding="utf-8"?>
<!-- Generator: Adobe Illustrator 16.0.4, SVG Export Plug-In . SVG Version: 6.00 Build 0)  -->
<!DOCTYPE svg PUBLIC "-//W3C//DTD SVG 1.1//EN" "http://www.w3.org/Graphics/SVG/1.1/DTD/svg11.dtd">
<svg version="1.1" id="Layer_1" xmlns="http://www.w3.org/2000/svg" xmlns:xlink="http://www.w3.org/1999/xlink" x="0px" y="0px"
	 width="56.188px" height="56.188px" viewBox="0 0 56.188 56.188" enable-background="new 0 0 56.188 56.188" xml:space="preserve">
<g>
	<path id="_x31_807_1_" fill="#989898" d="M0,56.188L0,56.188c0,0,14.121-3.398,28.094-3.398c13.969,0,28.084,3.396,28.094,3.398H0z
		 M44.742,26.799C39.113,15.549,28.109,0.023,28.094,0l28.094,56.188C56.188,56.188,50.371,38.061,44.742,26.799z M11.445,26.799
		C5.814,38.062,0,56.188,0,56.188l0,0L28.094,0C28.078,0.023,17.072,15.549,11.445,26.799z"/>
	<g>
		<polygon fill="#989898" points="25.058,48.646 25.708,48.646 25.386,47.535 		"/>
		<path fill="#989898" d="M43.191,34.746c0-0.102-0.115-0.102-0.194-0.102h-0.125v0.23h0.167
			C43.133,34.875,43.191,34.852,43.191,34.746z"/>
		<path fill="#989898" d="M43.026,35.551c0.339,0,0.618-0.277,0.618-0.621s-0.279-0.617-0.618-0.617
			c-0.343,0-0.619,0.273-0.619,0.617S42.684,35.551,43.026,35.551z M42.67,34.574h0.363c0.073,0,0.163-0.025,0.221,0.012
			c0.079,0.049,0.102,0.117,0.102,0.203c0,0.15-0.08,0.213-0.223,0.221l0.197,0.357h-0.189l-0.181-0.396h-0.091v0.396H42.67V34.574z
			"/>
		<path fill="#989898" d="M28.094,0L0.001,56.188c0,0,14.12-3.398,28.093-3.398c13.97,0,28.085,3.396,28.094,3.398L28.094,0z
			 M15.832,43.228h-1.977v-8c0,0,0.902,0,1.977,0c2.298,0,4.162,1.701,4.162,4.004S18.13,43.228,15.832,43.228z M22.116,49.572
			c-0.762,0-1.234-0.543-1.234-1.277c0-0.695,0.398-1.342,1.234-1.342c0.31,0,0.536,0.064,0.713,0.143l-0.177,0.455
			c-0.165-0.084-0.346-0.135-0.504-0.135c-0.517,0-0.696,0.471-0.696,0.867c0,0.514,0.345,0.826,0.734,0.826
			c0.199,0,0.377-0.062,0.5-0.135l0.146,0.428C22.652,49.492,22.359,49.572,22.116,49.572z M25.997,49.228l-0.155-1h-0.921l-0.155,1
			h-0.543l0.881-3h0.598l0.885,3H25.997z M26.855,36.228h-3v1h3v2h-3v2h3v2h-6v-8h6V36.228z M43.026,34.166
			c0.419,0,0.762,0.344,0.762,0.764c0,0.422-0.343,0.766-0.762,0.766c-0.424,0-0.767-0.344-0.767-0.766
			C42.26,34.51,42.603,34.166,43.026,34.166z M29.546,46.228h0.31v1h1v1h-1v1h-1v-3H29.546L29.546,46.228z M32.855,49.228h-1v-3
			h0.862l0,0h-0.862v1h1v1h-0.931l0,0h0.931V49.228z M32.05,46.863l0.279-0.596h0.566l-0.464,0.596H32.05z M32.855,43.228h-4v-8h3v6
			h1V43.228z M35.299,49.572c-0.294,0-0.538-0.08-0.699-0.164l0.149-0.434c0.144,0.09,0.37,0.164,0.58,0.164
			c0.229,0,0.406-0.092,0.406-0.301c0-0.182-0.177-0.262-0.318-0.32l-0.185-0.08c-0.332-0.143-0.592-0.316-0.592-0.73
			c0-0.432,0.352-0.754,0.9-0.754c0.225,0,0.475,0.035,0.684,0.143l-0.163,0.42c-0.146-0.088-0.326-0.141-0.521-0.141
			c-0.292,0-0.364,0.166-0.364,0.277c0,0.172,0.174,0.246,0.315,0.309l0.181,0.084c0.324,0.141,0.606,0.314,0.606,0.715
			C36.279,49.354,35.812,49.572,35.299,49.572z M36.855,43.228h-2v-7h-3v-1h7.979l-0.861,1h-2.117V43.228z M41.494,34.886
			l4.162,8.342h-8.322L41.494,34.886z"/>
		<path fill="#989898" d="M15.445,36.228h0.41v5c0,0-1.028,0-0.41,0c1.348,0,2.44-1.152,2.44-2.498
			C17.886,37.378,16.793,36.228,15.445,36.228z"/>
		<polygon fill="#989898" points="41.494,38.378 40.1,41.228 42.889,41.228 		"/>
	</g>
</g>
</svg>
