<?xml version="1.0" encoding="utf-8"?>
<!-- Generator: Adobe Illustrator 16.0.4, SVG Export Plug-In . SVG Version: 6.00 Build 0)  -->
<!DOCTYPE svg PUBLIC "-//W3C//DTD SVG 1.1//EN" "http://www.w3.org/Graphics/SVG/1.1/DTD/svg11.dtd">
<svg version="1.1" id="Layer_1" xmlns="http://www.w3.org/2000/svg" xmlns:xlink="http://www.w3.org/1999/xlink" x="0px" y="0px"
	 width="98.041px" height="11.207px" viewBox="0 0 98.041 11.207" enable-background="new 0 0 98.041 11.207" xml:space="preserve">
<g>
	<path fill-rule="evenodd" clip-rule="evenodd" fill="#989898" d="M5.58,3.01c-1.447,0-2.619,1.174-2.619,2.619
		c0,1.447,1.172,2.619,2.619,2.619c0.723,0,1.377-0.293,1.85-0.768c0.578-0.578,1.516-0.578,2.094,0s0.578,1.516,0,2.094
		c-1.012,1.01-2.404,1.633-3.943,1.633C2.498,11.207,0,8.709,0,5.629c0-3.082,2.498-5.58,5.58-5.58c1.539,0,2.932,0.625,3.941,1.633
		c0.58,0.58,0.58,1.518,0.002,2.096s-1.516,0.578-2.094,0C6.955,3.305,6.303,3.01,5.58,3.01z M96.678,8.627
		c0.75,0.012,1.363,0.58,1.363,1.309c0,0.734-0.623,1.271-1.365,1.271h-3.152c-1.904,0-3.871-1.322-3.871-3.434
		c0-0.857,0.322-1.584,0.836-2.145c-0.514-0.561-0.836-1.289-0.836-2.145c0-2.111,1.967-3.436,3.871-3.436h3.154
		c0.75,0.012,1.363,0.58,1.363,1.311c0,0.734-0.623,1.271-1.365,1.271h-3.152c-0.947,0-1.291,0.596-1.291,0.854
		s0.344,0.854,1.291,0.854h3.154c0.75,0.012,1.363,0.58,1.363,1.311c0,0.732-0.623,1.271-1.365,1.271h-3.152
		c-0.947,0-1.291,0.596-1.291,0.854s0.344,0.854,1.291,0.854H96.678z M79.732,1.609c0-0.783,0.736-1.418,1.643-1.418h6.209
		c0.906,0,1.643,0.635,1.643,1.418c0,0.785-0.736,1.418-1.643,1.418h-1.49v6.537c0,0.908-0.68,1.643-1.518,1.643
		c-0.836,0-1.514-0.734-1.514-1.643V3.027h-1.688C80.469,3.027,79.732,2.395,79.732,1.609z M71.238,11.207
		c-0.879,0-1.57-0.738-1.584-1.623V4.613C69.654,1.812,72.139,0,74.611,0c2.471,0,4.957,1.812,4.957,4.613v4.947
		c-0.016,0.904-0.701,1.646-1.584,1.646c-0.887,0-1.582-0.752-1.582-1.648l0.023-4.947c0-0.498-0.562-1.336-1.814-1.336
		s-1.814,0.838-1.814,1.336l0.023,4.947C72.82,10.455,72.125,11.207,71.238,11.207z M50.234,11.207c-0.881,0-1.57-0.738-1.584-1.623
		V4.613C48.65,1.812,51.135,0,53.607,0s4.955,1.812,4.955,4.613v4.947c-0.012,0.904-0.699,1.646-1.582,1.646
		c-0.887,0-1.582-0.752-1.582-1.648l0.021-4.947c0-0.498-0.561-1.336-1.812-1.336c-1.254,0-1.814,0.838-1.814,1.336l0.023,4.947
		C51.816,10.455,51.123,11.207,50.234,11.207z M45.113,11.207c-0.906,0-1.643-0.734-1.643-1.643V2.029
		c0-0.906,0.736-1.643,1.643-1.643h0.246c0.906,0,1.643,0.736,1.643,1.643v7.535c0,0.908-0.736,1.643-1.643,1.643H45.113z
		 M24.836,11.207c-0.879,0-1.57-0.738-1.584-1.623V4.613C23.252,1.812,25.738,0,28.209,0c2.473,0,4.957,1.812,4.957,4.613v4.947
		c-0.014,0.904-0.701,1.646-1.582,1.646c-0.889,0-1.584-0.752-1.584-1.648l0.023-4.947c0-0.498-0.562-1.336-1.814-1.336
		s-1.814,0.838-1.814,1.336l0.025,4.947C26.42,10.455,25.723,11.207,24.836,11.207z M16.475,2.867c-1.527,0-2.766,1.236-2.766,2.764
		s1.238,2.764,2.766,2.764c1.525,0,2.764-1.236,2.764-2.764S18,2.867,16.475,2.867z M16.475,0.053c3.08,0,5.576,2.498,5.576,5.578
		s-2.496,5.576-5.576,5.576s-5.578-2.496-5.578-5.576S13.395,0.053,16.475,0.053z M66.893,8.627c0.748,0.012,1.361,0.58,1.361,1.309
		c0,0.734-0.621,1.271-1.363,1.271h-3.154c-1.902,0-3.871-1.322-3.871-3.434c0-0.857,0.324-1.584,0.836-2.145
		c-0.512-0.561-0.836-1.289-0.836-2.145c0-2.111,1.969-3.436,3.871-3.436h3.156c0.748,0.012,1.361,0.58,1.361,1.311
		c0,0.734-0.621,1.271-1.363,1.271h-3.154c-0.945,0-1.289,0.596-1.289,0.854s0.344,0.854,1.289,0.854h3.156
		c0.748,0.012,1.361,0.58,1.361,1.311c0,0.732-0.621,1.271-1.363,1.271h-3.154c-0.945,0-1.289,0.596-1.289,0.854
		s0.344,0.854,1.289,0.854H66.893z M33.045,1.609c0-0.783,0.734-1.418,1.643-1.418h6.207c0.906,0,1.643,0.635,1.643,1.418
		c0,0.785-0.736,1.418-1.643,1.418h-1.49v6.537c0,0.908-0.678,1.643-1.516,1.643s-1.518-0.734-1.518-1.643V3.027h-1.684
		C33.779,3.027,33.045,2.395,33.045,1.609z"/>
</g>
</svg>
