<?xml version="1.0" encoding="utf-8"?>
<!-- Generator: Adobe Illustrator 16.0.0, SVG Export Plug-In . SVG Version: 6.00 Build 0)  -->
<!DOCTYPE svg PUBLIC "-//W3C//DTD SVG 1.1//EN" "http://www.w3.org/Graphics/SVG/1.1/DTD/svg11.dtd">
<svg version="1.1" id="Layer_1" xmlns="http://www.w3.org/2000/svg" xmlns:xlink="http://www.w3.org/1999/xlink" x="0px" y="0px"
	 width="29px" height="29px" viewBox="0 0 29 29" enable-background="new 0 0 29 29" xml:space="preserve">
<path fill-rule="evenodd" clip-rule="evenodd" fill="#CCCCCC" d="M25.276,0H3.722C1.674,0,0,1.675,0,3.723v21.555
	C0,27.325,1.674,29,3.722,29h10.779V18.045h-3.545v-4.833h3.545v-1.883c0-3.248,2.439-6.173,5.438-6.173h3.907v4.833h-3.907
	c-0.427,0-0.927,0.519-0.927,1.296v1.926h4.834v4.833h-4.834V29h6.265C27.324,29,29,27.325,29,25.278V3.723
	C29,1.675,27.324,0,25.276,0z"/>
</svg>
