<?xml version="1.0" encoding="utf-8"?>
<!-- Generator: Adobe Illustrator 16.0.4, SVG Export Plug-In . SVG Version: 6.00 Build 0)  -->
<!DOCTYPE svg PUBLIC "-//W3C//DTD SVG 1.1//EN" "http://www.w3.org/Graphics/SVG/1.1/DTD/svg11.dtd">
<svg version="1.1" id="Layer_1" xmlns="http://www.w3.org/2000/svg" xmlns:xlink="http://www.w3.org/1999/xlink" x="0px" y="0px"
	 width="93.641px" height="18.414px" viewBox="0 0 93.641 18.414" enable-background="new 0 0 93.641 18.414" xml:space="preserve">
<g>
	<path fill="#989898" d="M39.881,5.65c-0.102-0.01-1.514-0.131-1.707-0.152c-0.938-0.096-1.328-1.074-1.328-1.693V3.328
		c0-0.611,0.197-1.869,1.732-1.869h3.193V0.002h-3.654c-2.662,0-3.543,2.189-3.543,3.348V4.15c0,0.953,0.656,3.02,2.906,3.277
		c0.252,0.029,0.834,0.07,1.125,0.094c1.082,0.088,1.551,0.902,1.551,1.771c0,0.248-0.006,0.576-0.006,0.711
		c0,1.633-1.055,1.986-1.656,1.986h-3.408v1.438H39.4c1.953,0,3.127-1.615,3.127-3.555V9.037C42.527,7.436,41.504,5.787,39.881,5.65
		 M46.637,1.492L44.252,1.49v9.111c0,1.117,0.816,2.828,2.725,2.828h1.584v-1.438h-1.062c-0.453,0-0.859-0.314-0.859-1.072V4.662
		h2.555V3.203h-2.557V1.492z M14.48,8.076c0,1,0.002,0.518,0.002,2.25c0,2.186,1.463,3.104,2.529,3.104h2.383V11.99h-1.527
		c-0.438,0-1.004-0.055-1.004-1.34v-2.84c0-2.975,1.002-3.148,1.684-3.148h1.908v8.777l2.365-0.008V3.205h-4.053
		C17.232,3.205,14.48,3.49,14.48,8.076 M10.381,0v13.43h2.359V0H10.381z M50.148,8.076c0,1,0,0.518,0,2.25
		c0,2.186,1.463,3.104,2.529,3.104h2.383V11.99h-1.527c-0.436,0-1.004-0.055-1.004-1.34v-2.84c0-2.975,1.002-3.148,1.684-3.148h1.91
		v8.777l2.363-0.008V3.205h-4.051C52.898,3.205,50.148,3.49,50.148,8.076 M28.881,9.926l-2.285-6.721h-2.49l3.455,10.146
		l-1.945,5.062h2.059l6.062-15.209h-2.252L28.881,9.926z M5.818,0C3.73,0,0,0.002,0,0.002v13.426l2.367,0.002V1.461h2.789
		c0.814,0,1.389,0.99,1.389,2.721c0,1.678-0.512,2.779-1.414,2.779H3.408v1.438c0,0,1.268,0,2.447,0c1.012,0,3.057-0.93,3.057-4.16
		C8.912,0.838,6.965,0,5.818,0 M85.223,3.205h-4.211V13.43h2.398V4.66h1.943c1.479,0,1.621,1.682,1.621,3.217v5.553h2.371V7.844
		C89.346,5.055,88.184,3.205,85.223,3.205 M75.123,3.205c-4.139,0-4.35,3.316-4.35,4.5v1.32c0,1.729,0.617,4.406,4.406,4.406
		c3.445,0,4.293-2.426,4.293-4.486V7.713C79.473,7.111,79.471,3.205,75.123,3.205 M77.08,8.771c0,2.008-0.354,3.225-1.941,3.225
		c-1.344,0-1.986-0.727-1.986-3.246V7.879c0-1.713,0.219-3.223,1.973-3.223c1.725,0,1.955,1.443,1.955,3.229V8.771z M62.816,1.492
		L60.432,1.49v9.111c0,1.117,0.816,2.828,2.725,2.828h1.586v-1.438h-1.064c-0.453,0-0.861-0.314-0.861-1.072V4.662h2.557V3.203
		h-2.557V1.492z M92.303,10.75c-0.738,0-1.338,0.598-1.338,1.338c0,0.736,0.6,1.336,1.338,1.336s1.338-0.6,1.338-1.336
		C93.641,11.348,93.041,10.75,92.303,10.75 M92.303,13.24c-0.637,0-1.154-0.518-1.154-1.152c0-0.639,0.518-1.156,1.154-1.156
		s1.152,0.518,1.152,1.156C93.455,12.723,92.939,13.24,92.303,13.24 M66.826,13.43h2.367V3.205h-2.367V13.43z M66.826,2.008h2.367V0
		h-2.367V2.008z M92.906,12.684c-0.008-0.027-0.012-0.068-0.014-0.123l-0.006-0.195c-0.004-0.084-0.021-0.145-0.051-0.184
		c-0.027-0.037-0.07-0.066-0.127-0.09c0.064-0.033,0.115-0.078,0.15-0.133c0.037-0.057,0.055-0.127,0.055-0.215
		c0-0.166-0.066-0.281-0.201-0.344c-0.07-0.031-0.16-0.047-0.27-0.047h-0.66v1.451h0.197v-0.623h0.436
		c0.078,0,0.135,0.01,0.172,0.027c0.064,0.033,0.098,0.096,0.102,0.191l0.014,0.242c0.002,0.057,0.006,0.094,0.008,0.115
		c0.006,0.02,0.01,0.035,0.018,0.047h0.24v-0.031C92.938,12.76,92.918,12.73,92.906,12.684 M92.637,11.963
		c-0.055,0.037-0.123,0.055-0.215,0.055H91.98v-0.496h0.467c0.066,0,0.117,0.012,0.158,0.029c0.072,0.037,0.107,0.109,0.107,0.213
		C92.713,11.859,92.688,11.926,92.637,11.963"/>
</g>
</svg>
