<?xml version="1.0" encoding="utf-8"?>
<!-- Generator: Adobe Illustrator 16.0.4, SVG Export Plug-In . SVG Version: 6.00 Build 0)  -->
<!DOCTYPE svg PUBLIC "-//W3C//DTD SVG 1.1//EN" "http://www.w3.org/Graphics/SVG/1.1/DTD/svg11.dtd">
<svg version="1.1" id="Layer_1" xmlns="http://www.w3.org/2000/svg" xmlns:xlink="http://www.w3.org/1999/xlink" x="0px" y="0px"
	 width="75.754px" height="27.918px" viewBox="0 0 75.754 27.918" enable-background="new 0 0 75.754 27.918" xml:space="preserve">
<g>
	<path fill-rule="evenodd" clip-rule="evenodd" fill="#989898" d="M13.965,0C8.324,0,0,8.32,0,13.965
		c0,5.627,8.318,13.953,13.965,13.953c5.635,0,13.961-8.326,13.961-13.953C27.926,8.326,19.609,0,13.965,0z M21.963,16.996
		l-4.967,4.957c-1.676,1.678-4.391,1.678-6.063,0l-4.969-4.957c-1.676-1.678-1.676-4.391,0-6.064l5.294-5.303l1.415,1.414
		c0.714,0.713,0.714,1.867,0,2.578L11.15,11.15c-1.561,1.559-1.561,4.07,0,5.631c1.557,1.539,4.071,1.539,5.629,0
		c1.548-1.561,1.548-4.084,0-5.631l-0.389-0.387c-0.133-0.131-0.341-0.131-0.476,0l-1.248,1.24c-0.126,0.135-0.126,0.344,0,0.477
		c0.134,0.135,0.342,0.135,0.479,0l0.35-0.35c0.062,0.059,0.151,0.15,0.151,0.15c0.93,0.93,0.93,2.438,0,3.365
		c-0.928,0.932-2.438,0.932-3.367,0c-0.934-0.928-0.934-2.436,0-3.365l5.521-5.52l4.162,4.17
		C23.639,12.605,23.639,15.318,21.963,16.996z"/>
	<path fill-rule="evenodd" clip-rule="evenodd" fill="#989898" d="M59.178,3.854h3.619v15.311h-3.619V3.854L59.178,3.854z
		 M72.16,13.535c0-0.588-0.041-1.105-0.141-1.561c-0.102-0.434-0.253-0.803-0.471-1.102c-0.2-0.277-0.469-0.496-0.805-0.639
		c-0.344-0.152-0.77-0.225-1.271-0.225c-0.146,0-0.278,0-0.411,0.016c-0.127,0.008-0.244,0.016-0.354,0.033
		c-0.08,0.008-0.156,0.023-0.224,0.043c-0.027,0.01-0.051,0.01-0.068,0.018v6.906c0,0,0.009,0,0.018,0
		c0.059,0.02,0.124,0.029,0.194,0.035h-0.012c0.092,0.018,0.193,0.025,0.302,0.031c0.112,0,0.228,0.01,0.346,0.01
		c0.485,0,0.902-0.076,1.264-0.225c0.354-0.143,0.654-0.359,0.889-0.646c0.243-0.291,0.434-0.668,0.552-1.104
		C72.104,14.668,72.16,14.139,72.16,13.535L72.16,13.535z M75.754,13.459c0,0.871-0.14,1.678-0.408,2.379
		c-0.27,0.721-0.68,1.35-1.19,1.861c-0.518,0.518-1.157,0.92-1.885,1.197c-0.71,0.268-1.515,0.4-2.388,0.4
		c-0.195,0-0.377,0-0.562-0.016c-0.183-0.008-0.369-0.027-0.542-0.043c-0.11-0.01-0.221-0.023-0.329-0.043
		c-0.006,0-0.024-0.008-0.024-0.008l-0.009,4.113h-3.602V8.693l0.127-0.051l0.113-0.059c0.279-0.117,0.587-0.234,0.947-0.344
		c0.331-0.09,0.683-0.176,1.074-0.24c0.367-0.07,0.754-0.119,1.175-0.154c0.395-0.031,0.817-0.049,1.289-0.049
		c0.945,0,1.809,0.133,2.563,0.379c0.777,0.26,1.44,0.637,1.982,1.121c0.539,0.494,0.964,1.104,1.242,1.811
		C75.614,11.801,75.754,12.59,75.754,13.459L75.754,13.459z M41.873,16.908v-6.807c-0.025-0.008-0.042-0.02-0.067-0.027
		c-0.065-0.016-0.15-0.025-0.237-0.041c-0.098-0.016-0.214-0.023-0.35-0.035c-0.126-0.006-0.268-0.006-0.4-0.006
		c-0.486,0-0.896,0.074-1.234,0.236c-0.333,0.148-0.602,0.375-0.812,0.668c-0.224,0.309-0.385,0.697-0.492,1.154
		c-0.106,0.479-0.161,1.021-0.161,1.633c0,0.598,0.055,1.117,0.161,1.559c0.101,0.428,0.252,0.779,0.459,1.059
		c0.203,0.268,0.455,0.467,0.762,0.592c0.327,0.143,0.713,0.209,1.174,0.209c0.15,0,0.286-0.01,0.402-0.016
		c0.135-0.016,0.26-0.031,0.377-0.061c0.102-0.016,0.192-0.041,0.287-0.072C41.789,16.943,41.831,16.926,41.873,16.908
		L41.873,16.908z M45.4,18.922c0,0.729-0.127,1.371-0.369,1.926c-0.252,0.586-0.629,1.072-1.115,1.475
		c-0.484,0.391-1.07,0.693-1.75,0.895c-0.67,0.201-1.443,0.299-2.268,0.299c-0.345,0-0.673-0.006-0.982-0.029
		c-0.317-0.018-0.637-0.043-0.938-0.084c-0.311-0.045-0.604-0.086-0.88-0.145c-0.275-0.057-0.536-0.117-0.788-0.189l-0.142-0.043
		l-0.141-0.043V20.27l0.282,0.133l0.287,0.127c0.165,0.074,0.368,0.148,0.586,0.217c0.218,0.064,0.45,0.127,0.702,0.17
		c0.243,0.047,0.495,0.084,0.756,0.105c0.25,0.025,0.501,0.035,0.771,0.035c0.434,0,0.811-0.041,1.123-0.125
		c0.315-0.084,0.567-0.213,0.769-0.367c0.193-0.152,0.326-0.354,0.42-0.58c0.101-0.254,0.15-0.537,0.15-0.855v-0.084
		c-0.033,0.008-0.076,0.02-0.109,0.027c-0.126,0.031-0.268,0.057-0.418,0.082c-0.218,0.033-0.436,0.068-0.672,0.084
		c-0.227,0.016-0.469,0.027-0.738,0.027c-0.794,0-1.533-0.137-2.191-0.391c-0.672-0.248-1.257-0.627-1.744-1.119
		c-0.478-0.479-0.845-1.053-1.105-1.734c-0.24-0.662-0.367-1.396-0.367-2.217c0-1.844,0.559-3.379,1.698-4.432
		c1.073-1.008,2.657-1.576,4.734-1.576c0.435,0,0.846,0.027,1.231,0.049c0.402,0.043,0.787,0.092,1.146,0.16
		c0.377,0.07,0.721,0.162,1.023,0.254c0.326,0.1,0.603,0.215,0.832,0.342l0.099,0.057L45.4,8.717V18.922L45.4,18.922z
		 M53.726,17.086v-3.551c-0.51,0.059-0.974,0.133-1.385,0.225c-0.456,0.102-0.854,0.227-1.171,0.396
		c-0.311,0.166-0.546,0.359-0.703,0.619c-0.157,0.25-0.232,0.561-0.232,0.955c0,0.26,0.041,0.484,0.123,0.668
		c0.076,0.186,0.201,0.336,0.359,0.453c0.186,0.133,0.412,0.234,0.689,0.303c0.292,0.061,0.643,0.092,1.027,0.092
		c0.145,0,0.285-0.01,0.438-0.016c0.15-0.016,0.283-0.035,0.409-0.043c0.109-0.02,0.219-0.041,0.312-0.068
		C53.642,17.111,53.682,17.092,53.726,17.086L53.726,17.086z M57.159,18.469l-0.114,0.049l-0.12,0.053
		c-0.283,0.123-0.603,0.242-0.956,0.342c-0.344,0.092-0.721,0.174-1.131,0.242c-0.391,0.068-0.812,0.119-1.245,0.15
		c-0.423,0.035-0.863,0.051-1.342,0.051c-0.864,0-1.618-0.074-2.277-0.207c-0.681-0.152-1.248-0.371-1.712-0.654
		c-0.492-0.311-0.869-0.695-1.111-1.141c-0.25-0.445-0.377-0.973-0.377-1.549c0-0.77,0.217-1.416,0.629-1.943
		c0.391-0.521,0.961-0.922,1.656-1.24c0.646-0.293,1.391-0.512,2.223-0.676c0.759-0.152,1.591-0.262,2.444-0.338v-0.191
		c0-0.26-0.054-0.479-0.133-0.646c-0.087-0.16-0.202-0.273-0.362-0.369v-0.006c-0.176-0.102-0.4-0.176-0.664-0.219
		c-0.266-0.049-0.575-0.074-0.91-0.074c-0.25,0-0.502,0.018-0.735,0.041c-0.261,0.025-0.513,0.068-0.765,0.109
		c-0.268,0.057-0.527,0.125-0.762,0.193c-0.26,0.074-0.501,0.158-0.713,0.242l-0.268,0.109l-0.285,0.117V8.467l0.142-0.051
		l0.144-0.041c0.268-0.084,0.57-0.168,0.896-0.25C49.597,8.057,49.915,8,50.248,7.949c0.301-0.051,0.617-0.086,0.947-0.111
		c0.304-0.023,0.628-0.041,0.963-0.041c0.754,0,1.466,0.084,2.112,0.252c0.593,0.158,1.132,0.402,1.573,0.756
		c0.421,0.324,0.763,0.74,0.988,1.262c0.213,0.486,0.327,1.055,0.327,1.719V18.469L57.159,18.469z"/>
</g>
</svg>
