<?xml version="1.0" encoding="utf-8"?>
<!-- Generator: Adobe Illustrator 16.0.0, SVG Export Plug-In . SVG Version: 6.00 Build 0)  -->
<!DOCTYPE svg PUBLIC "-//W3C//DTD SVG 1.1//EN" "http://www.w3.org/Graphics/SVG/1.1/DTD/svg11.dtd">
<svg version="1.1" id="Layer_1" xmlns="http://www.w3.org/2000/svg" xmlns:xlink="http://www.w3.org/1999/xlink" x="0px" y="0px"
	 width="93.641px" height="18.414px" viewBox="0 0 93.641 18.414" enable-background="new 0 0 93.641 18.414" xml:space="preserve">
<g>
	<path fill="#FFFFFF" d="M39.881,8.48c-0.102-0.01-1.514-0.131-1.707-0.152c-0.938-0.096-1.328-1.074-1.328-1.693V6.158
		c0-0.611,0.197-1.869,1.732-1.869h3.193V2.832h-3.654c-2.662,0-3.543,2.189-3.543,3.348V6.98c0,0.953,0.656,3.02,2.906,3.277
		c0.252,0.029,0.834,0.07,1.125,0.094c1.082,0.088,1.551,0.902,1.551,1.771c0,0.248-0.006,0.576-0.006,0.711
		c0,1.633-1.055,1.986-1.656,1.986h-3.408v1.438H39.4c1.953,0,3.127-1.615,3.127-3.555v-0.836
		C42.527,10.266,41.504,8.617,39.881,8.48 M46.637,4.322L44.252,4.32v9.111c0,1.117,0.816,2.828,2.725,2.828h1.584v-1.438h-1.063
		c-0.453,0-0.859-0.314-0.859-1.072V7.492h2.555V6.033h-2.557V4.322z M14.48,10.906c0,1,0.002,0.518,0.002,2.25
		c0,2.186,1.463,3.104,2.529,3.104h2.383V14.82h-1.527c-0.438,0-1.004-0.055-1.004-1.34v-2.84c0-2.975,1.002-3.148,1.684-3.148
		h1.908v8.777l2.365-0.008V6.035h-4.053C17.232,6.035,14.48,6.32,14.48,10.906 M10.381,2.83v13.43h2.359V2.83H10.381z
		 M50.148,10.906c0,1,0,0.518,0,2.25c0,2.186,1.463,3.104,2.529,3.104h2.383V14.82h-1.527c-0.436,0-1.004-0.055-1.004-1.34v-2.84
		c0-2.975,1.002-3.148,1.684-3.148h1.91v8.777l2.363-0.008V6.035h-4.051C52.898,6.035,50.148,6.32,50.148,10.906 M28.881,12.756
		l-2.285-6.721h-2.49l3.455,10.146l-1.945,5.063h2.059l6.063-15.209h-2.252L28.881,12.756z M5.818,2.83C3.73,2.83,0,2.832,0,2.832
		v13.426l2.367,0.002V4.291h2.789c0.814,0,1.389,0.99,1.389,2.721c0,1.678-0.512,2.779-1.414,2.779H3.408v1.438c0,0,1.268,0,2.447,0
		c1.012,0,3.057-0.93,3.057-4.16C8.912,3.668,6.965,2.83,5.818,2.83 M85.223,6.035h-4.211V16.26h2.398V7.49h1.943
		c1.479,0,1.621,1.682,1.621,3.217v5.553h2.371v-5.586C89.346,7.885,88.184,6.035,85.223,6.035 M75.123,6.035
		c-4.139,0-4.35,3.316-4.35,4.5v1.32c0,1.729,0.617,4.406,4.406,4.406c3.445,0,4.293-2.426,4.293-4.486v-1.232
		C79.473,9.941,79.471,6.035,75.123,6.035 M77.08,11.602c0,2.008-0.354,3.225-1.941,3.225c-1.344,0-1.986-0.727-1.986-3.246v-0.871
		c0-1.713,0.219-3.223,1.973-3.223c1.725,0,1.955,1.443,1.955,3.229V11.602z M62.816,4.322L60.432,4.32v9.111
		c0,1.117,0.816,2.828,2.725,2.828h1.586v-1.438h-1.064c-0.453,0-0.861-0.314-0.861-1.072V7.492h2.557V6.033h-2.557V4.322z
		 M92.303,13.58c-0.738,0-1.338,0.598-1.338,1.338c0,0.736,0.6,1.336,1.338,1.336s1.338-0.6,1.338-1.336
		C93.641,14.178,93.041,13.58,92.303,13.58 M92.303,16.07c-0.637,0-1.154-0.518-1.154-1.152c0-0.639,0.518-1.156,1.154-1.156
		s1.152,0.518,1.152,1.156C93.455,15.553,92.939,16.07,92.303,16.07 M66.826,16.26h2.367V6.035h-2.367V16.26z M66.826,4.838h2.367
		V2.83h-2.367V4.838z M92.906,15.514c-0.008-0.027-0.012-0.068-0.014-0.123l-0.006-0.195c-0.004-0.084-0.021-0.145-0.051-0.184
		c-0.027-0.037-0.07-0.066-0.127-0.09c0.064-0.033,0.115-0.078,0.15-0.133c0.037-0.057,0.055-0.127,0.055-0.215
		c0-0.166-0.066-0.281-0.201-0.344c-0.07-0.031-0.16-0.047-0.27-0.047h-0.66v1.451h0.197v-0.623h0.436
		c0.078,0,0.135,0.01,0.172,0.027c0.064,0.033,0.098,0.096,0.102,0.191l0.014,0.242c0.002,0.057,0.006,0.094,0.008,0.115
		c0.006,0.02,0.01,0.035,0.018,0.047h0.24v-0.031C92.938,15.59,92.918,15.561,92.906,15.514 M92.637,14.793
		c-0.055,0.037-0.123,0.055-0.215,0.055H91.98v-0.496h0.467c0.066,0,0.117,0.012,0.158,0.029c0.072,0.037,0.107,0.109,0.107,0.213
		C92.713,14.689,92.688,14.756,92.637,14.793"/>
</g>
</svg>
