<?xml version="1.0" encoding="utf-8"?>
<!-- Generator: Adobe Illustrator 16.0.4, SVG Export Plug-In . SVG Version: 6.00 Build 0)  -->
<!DOCTYPE svg PUBLIC "-//W3C//DTD SVG 1.1//EN" "http://www.w3.org/Graphics/SVG/1.1/DTD/svg11.dtd">
<svg version="1.1" id="Layer_1" xmlns="http://www.w3.org/2000/svg" xmlns:xlink="http://www.w3.org/1999/xlink" x="0px" y="0px"
	 width="96.481px" height="14.763px" viewBox="0 0 96.481 14.763" enable-background="new 0 0 96.481 14.763" xml:space="preserve">
<g>
	<path fill-rule="evenodd" clip-rule="evenodd" fill="#989898" d="M52.887,6.899c0,0-0.934-0.576-1.51-0.801
		c0,0-1.785-0.826-2.139-1.221c0,0-0.695-0.654-0.289-1.416c0,0,0.172-0.498,0.904-0.498c0,0,0.959,0.053,0.959,0.84v1.109h3.43
		l-0.006-1.635c0,0,0.262-2.678-4.041-2.793c0,0-3.385-0.225-4.354,1.6c0,0-0.383,0.406-0.383,1.822V4.93
		c0,0-0.039,1.182,0.566,1.941c0,0,0.34,0.5,1.18,1.049c0,0,1.705,0.92,2.729,1.445c0,0,1.033,0.59,0.896,1.527
		c0,0-0.084,0.963-1.08,0.924c0,0-0.914-0.043-0.914-0.986V9.723h-3.654v1.611c0,0-0.102,3.08,4.596,3.08
		c0,0,4.486,0.092,4.695-3.162V9.942C54.473,9.942,54.631,7.948,52.887,6.899L52.887,6.899z"/>
	<polygon fill-rule="evenodd" clip-rule="evenodd" fill="#989898" points="35.327,0.868 34.18,8.065 33.911,8.065 32.813,0.932 
		27.084,0.932 26.797,13.963 30.19,13.963 30.231,4.145 30.497,4.145 32.295,13.963 35.864,13.963 37.639,4.147 37.875,4.147 
		37.958,13.963 41.368,13.963 41,0.868 35.327,0.868 	"/>
	<polygon fill-rule="evenodd" clip-rule="evenodd" fill="#989898" points="15.135,0.922 12.879,13.95 16.53,13.95 17.866,3.848 
		18.168,3.848 19.504,13.95 23.155,13.95 20.899,0.922 15.135,0.922 	"/>
	<path fill-rule="evenodd" clip-rule="evenodd" fill="#989898" d="M91.758,6.719v1.922h0.938v2.062c0,1.008-0.861,1.027-0.861,1.027
		c-1.049,0-1.01-0.959-1.01-0.959V3.637c0-0.736,0.932-0.773,0.932-0.773c0.893,0,0.898,0.875,0.898,0.875v1.086h3.438
		c0.111-2.117-0.311-2.631-0.311-2.631c-0.852-1.916-4.078-1.811-4.078-1.811c-4.959,0-4.408,3.805-4.408,3.805v6.9
		c0.105,3.566,4.992,3.205,5.074,3.199c2.174-0.24,2.83-0.93,2.83-0.93c0.604-0.447,0.76-1.07,0.76-1.07
		c0.172-0.361,0.215-1.516,0.215-1.516V6.719H91.758L91.758,6.719z"/>
	<polygon fill-rule="evenodd" clip-rule="evenodd" fill="#989898" points="80.364,8.84 80.213,8.84 76.723,0.87 72.551,0.87 
		72.551,13.965 75.948,13.965 75.743,5.997 75.895,5.997 79.51,13.965 83.559,13.965 83.559,0.87 80.118,0.87 80.364,8.84 	"/>
	<path fill-rule="evenodd" clip-rule="evenodd" fill="#989898" d="M64.256,10.704c0,0,0.049,1.074-0.947,1.074
		c0,0-1.049,0.057-1.049-1.049l-0.01-9.852h-3.727v9.773c0,0-0.383,3.699,4.838,3.699c0,0,4.535,0.053,4.535-3.529V0.877h-3.641
		V10.704L64.256,10.704z"/>
	<path fill-rule="evenodd" clip-rule="evenodd" fill="#989898" d="M8.032,6.899c0,0-0.932-0.576-1.508-0.801
		c0,0-1.785-0.826-2.139-1.221c0,0-0.695-0.656-0.289-1.416c0,0,0.172-0.498,0.904-0.498c0,0,0.959,0.053,0.959,0.84v1.109h3.43
		L9.383,3.278c0,0,0.262-2.678-4.041-2.793c0,0-0.322-0.021-0.799,0.002c0,0-2.605,0.139-3.537,1.57
		C1,2.067,0.993,2.075,0.987,2.084c0,0-0.379,0.406-0.379,1.822V4.93c0,0-0.041,1.182,0.564,1.941c0,0,0.34,0.5,1.18,1.049
		c0,0,1.705,0.92,2.729,1.443c0,0,1.033,0.59,0.898,1.529c0,0-0.086,0.963-1.082,0.924c0,0-0.912-0.043-0.912-0.986V9.721H0.329
		v1.613c0,0-0.102,3.08,4.594,3.08c0,0,4.486,0.092,4.697-3.162V9.942C9.62,9.942,9.778,7.948,8.032,6.899L8.032,6.899z"/>
</g>
</svg>
