<?xml version="1.0" encoding="utf-8"?>
<!-- Generator: Adobe Illustrator 16.0.4, SVG Export Plug-In . SVG Version: 6.00 Build 0)  -->
<!DOCTYPE svg PUBLIC "-//W3C//DTD SVG 1.1//EN" "http://www.w3.org/Graphics/SVG/1.1/DTD/svg11.dtd">
<svg version="1.1" id="Layer_1" xmlns="http://www.w3.org/2000/svg" xmlns:xlink="http://www.w3.org/1999/xlink" x="0px" y="0px"
	 width="96.2px" height="20.941px" viewBox="0 0 96.2 20.941" enable-background="new 0 0 96.2 20.941" xml:space="preserve">
<g>
	<path fill="#989898" d="M89.02,16.928v-1.35h7.023v1.35H89.02z M96.043,9.66v1.35h-0.486c0.441,0.244,0.644,0.807,0.644,1.334
		c0,1.432-1.123,2.27-2.416,2.27c-1.479,0-2.406-1.066-2.406-2.27c0-0.738,0.357-1.154,0.634-1.334h-0.479V9.66H96.043z
		 M93.809,13.264c0.412,0,1.129-0.309,1.129-1.123c0-0.479-0.227-0.773-0.503-0.943c-0.179-0.113-0.374-0.172-0.578-0.188
		c-0.202-0.016-0.404,0.025-0.593,0.115c-0.307,0.145-0.627,0.455-0.627,1.023c0,0.773,0.654,1.115,1.162,1.115H93.809z
		 M89.02,8.736V7.385h2.527h0.343c-0.512-0.479-0.512-1.121-0.512-1.307c0-0.943,0.676-2.221,2.382-2.221
		c1.627,0,2.44,1.129,2.44,2.275c0,0.635-0.311,1.123-0.636,1.311h0.479v1.293H89.02z M93.776,5.207c-0.576,0-1.14,0.439-1.14,1.105
		c0,0.715,0.578,1.123,1.14,1.123c0.624,0,1.161-0.422,1.161-1.1c0-0.689-0.56-1.129-1.153-1.129H93.776z M14.816,12.561
		l1.727,3.453l1.728-3.453H14.816z M46.007,8.666l-3.453,1.727l3.453,1.727V8.666z M84.7,16.928l-1.728-3.453l-1.725,3.453H84.7z"/>
	<path fill="#989898" d="M22.873,16.928h-2.467l-3.863-8.281l-3.86,8.281h-2.468l6.328-13.572L22.873,16.928z M47.757,6.322V3.857
		h-5.3h-1.236h-1.231v13.07h1.231h1.236h5.3v-2.465h-5.3V6.322H47.757z M2.466,3.857H0v13.07h2.466V3.857z M5.449,10.393
		l4.576-6.535H7.141l-4.577,6.535l4.577,6.535h2.885L5.449,10.393z M69.819,3.857h-2.466v13.07h2.466V3.857z M72.805,10.393
		l4.574-6.535h-2.885l-4.576,6.535l4.576,6.535h2.885L72.805,10.393z M56.141,11.865c1.241-0.82,1.95-2.117,1.95-3.586
		c0-1.609-0.716-2.916-2.018-3.682c-0.862-0.506-1.921-0.74-3.328-0.74h-3.087l0,0v13.07h2.468v-6.535v-4.07h0.619
		c1.708,0,2.88,0.424,2.88,1.957c0,1.434-1.41,2.061-3.047,2.111c-0.05,0-0.231,0.002-0.354,0.002l0,0l4.575,6.535h2.888
		L56.141,11.865z M36.616,4.598c-0.863-0.506-1.923-0.74-3.328-0.74H30.2l0,0v13.07h2.466v-6.535v-4.07h0.622
		c1.706,0,2.878,0.424,2.878,1.957c0,1.434-1.409,2.061-3.043,2.111c-0.053,0-0.236,0.002-0.359,0.002l0,0l1.642,2.34
		c0.81-0.143,1.536-0.406,2.142-0.777c0.048-0.029,0.09-0.061,0.136-0.09c1.24-0.82,1.948-2.117,1.948-3.586
		C38.631,6.67,37.917,5.363,36.616,4.598z M86.002,3.857l-3.026,5.244l-3.03-5.244h-2.466l5.496,9.516l5.491-9.516H86.002z
		 M22.672,18.754l1.008,2.188c4.782-3.656,5.661-7.742,2.549-12.119c-2.465-3.469,0.248-6.555,1.065-7.355L25.463,0
		c-1.195,1.314-4.336,5.418-1.588,9.545C26.533,13.541,26.256,15.707,22.672,18.754z M59.822,18.754l1.01,2.188
		c4.781-3.656,5.662-7.742,2.55-12.119c-2.465-3.469,0.248-6.555,1.063-7.355L62.616,0c-1.198,1.314-4.336,5.418-1.591,9.545
		C63.684,13.541,63.409,15.707,59.822,18.754z"/>
</g>
</svg>
