<?xml version="1.0" encoding="utf-8"?>
<!-- Generator: Adobe Illustrator 16.0.4, SVG Export Plug-In . SVG Version: 6.00 Build 0)  -->
<!DOCTYPE svg PUBLIC "-//W3C//DTD SVG 1.1//EN" "http://www.w3.org/Graphics/SVG/1.1/DTD/svg11.dtd">
<svg version="1.1" id="Layer_1" xmlns="http://www.w3.org/2000/svg" xmlns:xlink="http://www.w3.org/1999/xlink" x="0px" y="0px"
	 width="83.947px" height="10.582px" viewBox="0 0 83.947 10.582" enable-background="new 0 0 83.947 10.582" xml:space="preserve">
<g>
	<path fill="#989898" d="M7.969,6.429h2.328L10.26,6.531C9.637,8.25,8.145,9.199,6.059,9.199c-2.727,0-4.561-1.571-4.561-3.909
		c0-1.201,0.488-2.188,1.459-2.94c0.801-0.617,1.934-0.968,3.102-0.968c1.576,0,2.838,0.548,3.852,1.671l1.344-0.709
		C9.902,0.747,8.289,0,6.191,0C4.484,0,3.004,0.468,1.916,1.353C0.646,2.368,0,3.691,0,5.29c0,1.614,0.635,2.944,1.891,3.95
		c1.059,0.852,2.578,1.339,4.168,1.339c3.609,0,6.035-2.188,6.035-5.442V5.061H7.969V6.429z"/>
	<path fill="#989898" d="M19.014,10.582c-3.123,0-5.221-1.346-5.221-3.352V0.829h1.463v6.019c0,1.516,1.334,2.349,3.758,2.349
		c2.404,0,3.73-0.833,3.73-2.349V0.829h1.463V7.23C24.207,9.236,22.121,10.582,19.014,10.582"/>
	<polygon fill="#989898" points="27.732,5.968 33.139,5.968 33.139,4.689 27.732,4.689 27.732,2.104 34.625,2.104 34.625,0.829 
		26.312,0.829 26.312,10.248 34.631,10.248 34.631,8.972 27.732,8.972 	"/>
	<path fill="#989898" d="M46.184,10.248l-2.305-3.706l0.111-0.021c1.408-0.262,2.184-1.24,2.184-2.755
		c0-1.812-1.088-2.938-2.838-2.938H36.59v9.419h1.277V6.599h4.496l2.342,3.649H46.184z M37.867,5.312v-3.2h5.121
		c1.24,0,1.873,0.559,1.873,1.654c0,0.983-0.635,1.546-1.74,1.546H37.867z"/>
	<polygon fill="#989898" points="56.469,8.963 49.398,8.963 49.398,0.829 48.037,0.829 48.037,10.248 56.469,10.248 	"/>
	<path fill="#989898" d="M64.135,0.829H62.41l-4.553,9.419h1.41l1.014-2.143h5.982l1.016,2.143h1.408L64.135,0.829z M60.918,6.821
		l2.361-4.891l2.348,4.891H60.918z"/>
	<rect x="70.219" y="0.829" fill="#989898" width="1.301" height="9.419"/>
	<polygon fill="#989898" points="82.586,0.829 82.586,8.813 75.488,0.829 73.723,0.829 73.723,10.248 75.082,10.248 75.082,2.265 
		82.189,10.248 83.947,10.248 83.947,0.829 	"/>
</g>
</svg>
