<?xml version="1.0" encoding="utf-8"?>
<!-- Generator: Adobe Illustrator 16.0.4, SVG Export Plug-In . SVG Version: 6.00 Build 0)  -->
<!DOCTYPE svg PUBLIC "-//W3C//DTD SVG 1.1//EN" "http://www.w3.org/Graphics/SVG/1.1/DTD/svg11.dtd">
<svg version="1.1" id="Layer_1" xmlns="http://www.w3.org/2000/svg" xmlns:xlink="http://www.w3.org/1999/xlink" x="0px" y="0px"
	 width="48.952px" height="35.144px" viewBox="0 0 48.952 35.144" enable-background="new 0 0 48.952 35.144" xml:space="preserve">
<g>
	<path fill="#989898" d="M48.783,22.119c-0.41-0.942-1.471-1.396-2.43-1.078l1.016-7.78c0.473-3.596-2.127-6.367-5.566-6.367
		c-3.877,0-5.994,3.096-6.49,5.885c-0.283,1.604-0.471,1.889-1.035,2.46l-4.059,4.109l2.217-17.118
		c0.143-1.082-0.619-2.071-1.705-2.213c-1.08-0.139-2.07,0.622-2.211,1.705l-0.73,5.615c0,0-0.939-0.443-2.246-0.443
		c-3.203,0-6.291,2.459-6.734,5.885c-0.186,1.453-0.49,1.961-1.035,2.592c-0.484,0.555-4.84,5.553-4.84,5.553
		c-0.646,0.68-2.498,2.864-5.295,2.864c-1.453,0-1.648-1.521-1.648-1.521l4.154-2.896c1.721-1.196,5.328-3.709,5.328-7.172
		c0-3.11-2.416-5.306-5.549-5.306c-3.807,0-6.334,2.797-6.781,5.891L2.046,20.34c-0.006,0.029-0.008,0.058-0.012,0.088v-0.004
		l-1.266,0.896c-0.863,0.667-1.023,1.909-0.359,2.771c0.393,0.505,0.977,0.772,1.57,0.772c0.176,0,0.35-0.029,0.523-0.078
		c0.82,1.825,2.514,2.953,4.982,2.953c4.543,0,7.113-2.947,8.145-4.133l2.094-2.403c-0.551,4.275,2.268,6.536,5.348,6.536
		c3.598,0,4.85-1.171,8.23-4.274l2.82-2.7l-1.586,12.147c-0.141,1.082,0.619,2.073,1.705,2.215c1.078,0.139,2.072-0.625,2.213-1.706
		l0.795-6.124c0,0,0.957,0.455,2.266,0.455c0.918,0,1.826-0.204,2.668-0.572l5.586-2.458C48.771,24.284,49.224,23.12,48.783,22.119z
		 M6.789,13.303c0.205-1.531,1.621-2.618,3.131-2.618s1.646,1.038,1.646,1.444c0,1.604-2.541,3.379-5.336,5.342
		C6.23,17.471,6.568,14.957,6.789,13.303z M27.037,13.124l-1.066,8.188c-0.227,1.733-1.455,2.445-2.49,2.445
		c-1.492,0-2.021-0.813-1.809-2.445l1.064-8.188c0.227-1.733,1.455-2.444,2.49-2.444C26.718,10.679,27.25,11.49,27.037,13.124z
		 M43.382,13.124l-1.064,8.188c-0.227,1.733-1.457,2.445-2.49,2.445c-1.494,0-2.02-0.813-1.809-2.445l1.062-8.188
		c0.227-1.733,1.457-2.444,2.488-2.444C43.066,10.679,43.595,11.49,43.382,13.124z"/>
</g>
</svg>
