<?xml version="1.0" encoding="utf-8"?>
<!-- Generator: Adobe Illustrator 16.0.4, SVG Export Plug-In . SVG Version: 6.00 Build 0)  -->
<!DOCTYPE svg PUBLIC "-//W3C//DTD SVG 1.1//EN" "http://www.w3.org/Graphics/SVG/1.1/DTD/svg11.dtd">
<svg version="1.1" id="Layer_1" xmlns="http://www.w3.org/2000/svg" xmlns:xlink="http://www.w3.org/1999/xlink" x="0px" y="0px"
	 width="84.623px" height="26.24px" viewBox="0 0 84.623 26.24" enable-background="new 0 0 84.623 26.24" xml:space="preserve">
<g>
	<g>
		<polygon fill="#989898" points="48.012,16.854 47.287,16.854 47.266,16.822 35.924,2.582 35.924,16.854 35.004,16.854 
			35.004,1.09 35.816,1.09 35.838,1.119 47.09,15.246 47.09,1.09 48.012,1.09 		"/>
		<path fill="#989898" d="M78.205,17.098c-0.941,0-1.818-0.152-2.604-0.449c-0.789-0.301-1.475-0.75-2.037-1.336
			c-0.561-0.584-1.008-1.324-1.322-2.199c-0.312-0.877-0.471-1.91-0.471-3.072V1.09h0.918v8.906c0,1.027,0.135,1.939,0.398,2.719
			c0.264,0.77,0.637,1.426,1.119,1.955c0.479,0.521,1.066,0.92,1.742,1.182c0.678,0.26,1.445,0.393,2.279,0.393
			c0.832,0,1.594-0.129,2.266-0.383c0.67-0.256,1.248-0.645,1.721-1.162c0.473-0.514,0.842-1.166,1.098-1.932
			c0.256-0.768,0.387-1.688,0.387-2.727V1.09h0.92v8.885c0,1.162-0.156,2.201-0.463,3.092c-0.305,0.893-0.746,1.643-1.311,2.236
			c-0.564,0.592-1.25,1.045-2.037,1.346C80.023,16.945,79.146,17.098,78.205,17.098"/>
		<path fill="#989898" d="M67.9,16.854h-1.006l-1.621-3.484c-0.059-0.074-0.695-0.846-2.125-1.496
			c-1.357-0.617-3.004-0.928-4.895-0.928c-0.791,0-1.621,0.053-2.471,0.164l-2.699,5.744h-0.955l7.477-15.875h0.816l0.02,0.045
			L67.9,16.854z M58.252,10.061c2.047,0,3.834,0.346,5.322,1.035c0.293,0.137,0.576,0.287,0.842,0.445l-4.422-9.402l-3.771,8.027
			C56.916,10.094,57.598,10.061,58.252,10.061"/>
	</g>
	<g>
		<path fill="#989898" d="M26.246,0H0v18.826c2.59-1.199,4.412-1.637,6.18-1.869c2.992-0.389,6.182-0.129,9.547,0.781
			c3.992,1.084,8.307,3.314,10.52,4.854V0z"/>
		<path fill="#989898" d="M5.596,22.131c-1.92,0.398-3.447,0.814-5.596,2.48v1.629h26.246V24.27
			c-4.371-1.223-9.057-2.062-12.506-2.359C10.582,21.637,7.842,21.711,5.596,22.131"/>
		<path fill="#989898" d="M0,23.191c2.309-1.492,4.152-1.949,6.211-2.268c2.168-0.338,4.715-0.35,7.623-0.1
			c3.186,0.275,6.689,0.881,10.438,1.805c-3.74-2.248-11.383-5.938-19.248-4.363c-1.312,0.26-2.797,0.68-5.023,1.762V23.191z"/>
	</g>
	<g>
		<polygon fill="#989898" points="37.354,25.141 37.354,23.557 35.158,23.557 35.158,25.141 35.004,25.141 35.004,21.924 
			35.158,21.924 35.158,23.414 37.354,23.414 37.354,21.924 37.508,21.924 37.508,25.141 		"/>
		<path fill="#989898" d="M38.729,23.535c0-0.932,0.596-1.662,1.527-1.662c0.934,0,1.533,0.73,1.533,1.662
			c0,0.93-0.6,1.666-1.533,1.666C39.324,25.201,38.729,24.465,38.729,23.535 M41.619,23.535c0-0.883-0.535-1.52-1.363-1.52
			c-0.834,0-1.355,0.637-1.355,1.52c0,0.873,0.521,1.52,1.355,1.52C41.084,25.055,41.619,24.408,41.619,23.535"/>
		<polygon fill="#989898" points="43.709,25.141 43.709,22.068 42.623,22.068 42.623,21.924 44.953,21.924 44.953,22.068 
			43.863,22.068 43.863,25.141 		"/>
		<polygon fill="#989898" points="46.045,25.141 46.045,21.924 48.014,21.924 48.014,22.068 46.197,22.068 46.197,23.414 
			47.979,23.414 47.979,23.557 46.197,23.557 46.197,24.996 48.014,24.996 48.014,25.141 		"/>
		<polygon fill="#989898" points="49.143,25.141 49.143,21.924 49.297,21.924 49.297,24.996 50.912,24.996 50.912,25.141 		"/>
		<path fill="#989898" d="M51.824,24.688l0.127-0.111c0.197,0.24,0.535,0.479,0.998,0.479c0.742,0,0.932-0.426,0.932-0.727
			c0-1.066-1.955-0.539-1.955-1.637c0-0.521,0.477-0.818,1.008-0.818c0.475,0,0.814,0.172,1.043,0.451l-0.121,0.111
			c-0.229-0.295-0.549-0.42-0.922-0.42c-0.467,0-0.838,0.281-0.838,0.676c0,0.916,1.955,0.436,1.955,1.637
			c0,0.359-0.23,0.873-1.102,0.873C52.449,25.201,52.057,24.982,51.824,24.688"/>
		<path fill="#989898" d="M59.16,25.141c-0.125-0.105-0.297-0.266-0.465-0.43c-0.223,0.279-0.529,0.49-0.959,0.49
			c-0.516,0-0.945-0.295-0.945-0.865c0-0.518,0.352-0.779,0.729-0.988c-0.164-0.254-0.281-0.518-0.281-0.746
			c0-0.428,0.33-0.725,0.721-0.725c0.381,0,0.627,0.207,0.627,0.588c0,0.475-0.43,0.693-0.844,0.926
			c0.148,0.217,0.326,0.42,0.451,0.555c0.168,0.189,0.326,0.352,0.482,0.512c0.209-0.314,0.33-0.668,0.385-0.828l0.15,0.061
			c-0.096,0.25-0.215,0.594-0.416,0.887c0.188,0.18,0.385,0.363,0.619,0.564H59.16z M58.574,24.592
			c-0.213-0.217-0.408-0.424-0.506-0.541c-0.154-0.172-0.322-0.375-0.467-0.578c-0.344,0.195-0.643,0.434-0.643,0.863
			c0,0.475,0.371,0.719,0.777,0.719C58.094,25.055,58.367,24.854,58.574,24.592 M57.658,23.262c0.387-0.201,0.758-0.395,0.758-0.797
			c0-0.295-0.197-0.443-0.457-0.443c-0.301,0-0.551,0.236-0.551,0.58C57.408,22.807,57.514,23.045,57.658,23.262"/>
		<path fill="#989898" d="M64.188,25.141l-0.98-1.389h-0.773v1.389h-0.152v-3.217h1.107c0.523,0,0.955,0.324,0.955,0.91
			c0,0.59-0.432,0.918-0.955,0.918l0.996,1.389H64.188z M64.172,22.834c0-0.441-0.311-0.766-0.783-0.766h-0.955v1.539h0.955
			C63.861,23.607,64.172,23.281,64.172,22.834"/>
		<polygon fill="#989898" points="65.559,25.141 65.559,21.924 67.525,21.924 67.525,22.068 65.713,22.068 65.713,23.414 
			67.494,23.414 67.494,23.557 65.713,23.557 65.713,24.996 67.525,24.996 67.525,25.141 		"/>
		<path fill="#989898" d="M68.562,24.688l0.125-0.111c0.199,0.24,0.537,0.479,1,0.479c0.744,0,0.93-0.426,0.93-0.727
			c0-1.066-1.951-0.539-1.951-1.637c0-0.521,0.477-0.818,1.008-0.818c0.471,0,0.814,0.172,1.043,0.451l-0.123,0.111
			c-0.225-0.295-0.549-0.42-0.92-0.42c-0.469,0-0.842,0.281-0.842,0.676c0,0.916,1.955,0.436,1.955,1.637
			c0,0.359-0.232,0.873-1.1,0.873C69.186,25.201,68.795,24.982,68.562,24.688"/>
		<path fill="#989898" d="M71.879,23.535c0-0.932,0.594-1.662,1.527-1.662s1.533,0.73,1.533,1.662c0,0.93-0.6,1.666-1.533,1.666
			S71.879,24.465,71.879,23.535 M74.768,23.535c0-0.883-0.533-1.52-1.361-1.52c-0.834,0-1.359,0.637-1.359,1.52
			c0,0.873,0.525,1.52,1.359,1.52C74.234,25.055,74.768,24.408,74.768,23.535"/>
		<path fill="#989898" d="M78.066,25.141l-0.98-1.389h-0.773v1.389h-0.154v-3.217h1.111c0.52,0,0.949,0.324,0.949,0.91
			c0,0.59-0.43,0.918-0.949,0.918l0.992,1.389H78.066z M78.049,22.834c0-0.441-0.309-0.766-0.779-0.766h-0.957v1.539h0.957
			C77.74,23.607,78.049,23.281,78.049,22.834"/>
		<polygon fill="#989898" points="80.232,25.141 80.232,22.068 79.146,22.068 79.146,21.924 81.477,21.924 81.477,22.068 
			80.387,22.068 80.387,25.141 		"/>
		<path fill="#989898" d="M82.398,24.688l0.125-0.111c0.197,0.24,0.537,0.479,1,0.479c0.742,0,0.93-0.426,0.93-0.727
			c0-1.066-1.955-0.539-1.955-1.637c0-0.521,0.479-0.818,1.01-0.818c0.473,0,0.814,0.172,1.039,0.451l-0.119,0.111
			c-0.227-0.295-0.549-0.42-0.92-0.42c-0.469,0-0.842,0.281-0.842,0.676c0,0.916,1.957,0.436,1.957,1.637
			c0,0.359-0.232,0.873-1.1,0.873C83.018,25.201,82.631,24.982,82.398,24.688"/>
	</g>
</g>
</svg>
