<?xml version="1.0" encoding="utf-8"?>
<!-- Generator: Adobe Illustrator 16.0.4, SVG Export Plug-In . SVG Version: 6.00 Build 0)  -->
<!DOCTYPE svg PUBLIC "-//W3C//DTD SVG 1.1//EN" "http://www.w3.org/Graphics/SVG/1.1/DTD/svg11.dtd">
<svg version="1.1" id="Layer_1" xmlns="http://www.w3.org/2000/svg" xmlns:xlink="http://www.w3.org/1999/xlink" x="0px" y="0px"
	 width="92.815px" height="19.92px" viewBox="0 0 92.815 19.92" enable-background="new 0 0 92.815 19.92" xml:space="preserve">
<g>
	<path fill-rule="evenodd" clip-rule="evenodd" fill="#989898" d="M0.006,0.007c0.131,0,0.223,0,0.316,0
		C3.234,0.007,6.148,0.01,9.061,0c0.26,0,0.336,0.07,0.336,0.328c-0.008,2.904-0.008,5.808,0,8.711c0,0.267-0.072,0.357-0.35,0.357
		C6.143,9.388,3.24,9.389,0.338,9.396C0.09,9.396,0,9.342,0,9.068c0.01-2.923,0.006-5.845,0.006-8.767
		C0.006,0.218,0.006,0.134,0.006,0.007z"/>
	<path fill-rule="evenodd" clip-rule="evenodd" fill="#989898" d="M15.121,9.371c-1.449,0-2.902-0.007-4.354,0.005
		c-0.273,0.002-0.352-0.075-0.35-0.35c0.008-2.894,0.008-5.789,0-8.684c0-0.258,0.064-0.337,0.33-0.336
		c2.904,0.01,5.809,0.009,8.713,0.001c0.244,0,0.324,0.064,0.324,0.317c-0.008,2.903-0.008,5.808,0,8.711
		c0,0.257-0.072,0.342-0.334,0.339C18.006,9.364,16.564,9.37,15.121,9.371z"/>
	<path fill-rule="evenodd" clip-rule="evenodd" fill="#989898" d="M0.006,10.529c0.131,0,0.223,0,0.316,0
		c2.912,0,5.826,0.004,8.738-0.007c0.26,0,0.336,0.07,0.336,0.329c-0.008,2.903-0.008,5.807,0,8.711c0,0.266-0.072,0.357-0.35,0.357
		c-2.904-0.01-5.807-0.009-8.709-0.002C0.09,19.918,0,19.865,0,19.592c0.01-2.923,0.006-5.845,0.006-8.768
		C0.006,10.74,0.006,10.657,0.006,10.529z"/>
	<path fill-rule="evenodd" clip-rule="evenodd" fill="#989898" d="M15.121,19.893c-1.449,0-2.902-0.006-4.354,0.006
		c-0.273,0.003-0.352-0.075-0.35-0.349c0.008-2.896,0.008-5.789,0-8.685c0-0.258,0.064-0.336,0.33-0.335
		c2.904,0.009,5.809,0.008,8.713,0.001c0.244-0.001,0.324,0.064,0.324,0.316c-0.008,2.904-0.008,5.808,0,8.711
		c0,0.257-0.072,0.342-0.334,0.34C18.006,19.888,16.564,19.893,15.121,19.893z"/>
	<path fill-rule="evenodd" clip-rule="evenodd" fill="#989898" d="M32.211,13.013c0.062-0.144,0.104-0.235,0.143-0.329
		c1.133-2.818,2.266-5.638,3.395-8.459c0.062-0.153,0.146-0.217,0.314-0.215c0.762,0.006,1.525,0.007,2.289-0.001
		c0.197-0.002,0.258,0.069,0.258,0.266c-0.004,3.761-0.004,7.522,0,11.283c0,0.2-0.066,0.263-0.262,0.258
		c-0.498-0.011-0.998-0.009-1.498,0c-0.188,0.003-0.244-0.067-0.242-0.249c0.006-2.705,0.004-5.41,0.012-8.115
		c0-0.41,0.045-0.82,0.068-1.23c-0.031-0.004-0.062-0.009-0.092-0.014c-0.031,0.13-0.053,0.266-0.1,0.389
		c-0.332,0.879-0.66,1.761-1.01,2.633c-0.846,2.104-1.703,4.202-2.551,6.305c-0.08,0.2-0.176,0.318-0.408,0.282
		c-0.121-0.019-0.246-0.003-0.367-0.003c-0.66,0-0.658-0.001-0.902-0.596c-1.086-2.637-2.174-5.271-3.254-7.91
		c-0.115-0.285-0.182-0.592-0.273-0.888c-0.021-0.075-0.053-0.149-0.08-0.223c-0.023,0.006-0.049,0.011-0.072,0.017
		c0.018,0.188,0.051,0.377,0.051,0.566c0.008,2.922,0.012,5.845,0.021,8.767c0,0.215-0.078,0.276-0.283,0.271
		c-0.375-0.013-0.754-0.004-1.131-0.004c-0.432,0-0.432,0-0.432-0.42c0-3.422,0-6.844,0-10.267c0-0.272,0.01-0.546-0.004-0.819
		c-0.012-0.216,0.053-0.303,0.283-0.299c0.781,0.011,1.564,0.009,2.348,0.001c0.18-0.002,0.268,0.069,0.332,0.231
		c1.113,2.867,2.232,5.732,3.35,8.598C32.131,12.881,32.158,12.918,32.211,13.013z"/>
	<path fill-rule="evenodd" clip-rule="evenodd" fill="#989898" d="M90.773,4.879c0,0.205,0,0.389,0,0.573
		c0,0.547,0.008,1.094-0.004,1.64c-0.002,0.211,0.072,0.281,0.281,0.275c0.5-0.011,1,0.004,1.498-0.006
		c0.193-0.005,0.273,0.053,0.266,0.256c-0.014,0.348-0.014,0.697,0,1.046c0.006,0.199-0.07,0.265-0.264,0.261
		c-0.49-0.009-0.98,0.006-1.471-0.006c-0.229-0.005-0.312,0.076-0.311,0.312c0.01,1.244,0.002,2.489,0.006,3.733
		c0.002,0.205,0.027,0.414,0.066,0.616c0.113,0.601,0.652,0.958,1.262,0.832c0.227-0.046,0.445-0.13,0.703-0.206
		c0,0.483,0.006,0.959-0.006,1.436c-0.002,0.057-0.096,0.141-0.164,0.162c-0.854,0.276-1.717,0.349-2.561-0.018
		c-0.762-0.33-1.127-0.982-1.178-1.766c-0.068-1.041-0.051-2.088-0.064-3.133c-0.008-0.557-0.01-1.112,0.002-1.668
		c0.004-0.221-0.068-0.302-0.289-0.301c-0.82,0.009-1.641,0.011-2.459,0c-0.236-0.003-0.305,0.078-0.303,0.312
		c0.008,2.045,0.004,4.091,0.002,6.136c0,0.492,0.062,0.444-0.459,0.447c-0.406,0.001-0.812-0.014-1.217,0.005
		c-0.246,0.012-0.32-0.062-0.32-0.315c0.01-2.045,0.006-4.091,0.006-6.137c0-0.443,0-0.443-0.449-0.444
		c-0.254,0-0.51,0.014-0.762-0.01c-0.072-0.007-0.189-0.122-0.191-0.192c-0.02-0.386-0.02-0.773,0-1.159
		c0.002-0.067,0.123-0.181,0.193-0.186c0.301-0.021,0.604-0.021,0.904-0.005c0.23,0.012,0.312-0.061,0.311-0.301
		c-0.002-0.488,0.006-0.979,0.053-1.465c0.115-1.225,1.17-2.302,2.396-2.417c0.488-0.046,0.99,0.01,1.484,0.028
		c0.191,0.006,0.271,0.108,0.266,0.313c-0.016,0.45-0.006,0.901-0.006,1.38c-0.215-0.058-0.4-0.115-0.59-0.156
		c-0.898-0.196-1.598,0.357-1.615,1.279c-0.006,0.357,0.008,0.717-0.004,1.073c-0.008,0.192,0.051,0.266,0.252,0.265
		c0.838-0.01,1.678-0.013,2.516,0c0.236,0.004,0.285-0.09,0.281-0.3c-0.012-0.461,0.002-0.924-0.008-1.385
		c-0.002-0.177,0.043-0.271,0.229-0.323c0.508-0.141,1.008-0.305,1.512-0.458C90.617,4.888,90.674,4.89,90.773,4.879z"/>
	<path fill-rule="evenodd" clip-rule="evenodd" fill="#989898" d="M82.148,11.494c-0.004,1.127-0.256,2.168-0.982,3.057
		c-0.719,0.879-1.668,1.309-2.783,1.435c-0.955,0.108-1.881,0.021-2.75-0.402c-1.293-0.632-1.945-1.718-2.135-3.116
		c-0.117-0.861-0.064-1.711,0.211-2.534c0.514-1.538,1.602-2.412,3.186-2.686c0.814-0.141,1.629-0.128,2.43,0.085
		c1.484,0.394,2.535,1.611,2.732,3.152C82.1,10.82,82.119,11.158,82.148,11.494z M80.168,11.62c-0.043-0.676-0.121-1.33-0.49-1.904
		c-0.557-0.862-1.396-1.072-2.346-0.911c-0.924,0.156-1.498,0.755-1.703,1.641c-0.123,0.539-0.137,1.114-0.125,1.672
		c0.025,1.253,0.791,2.128,2.029,2.287c1.086,0.141,2.051-0.286,2.402-1.485C80.059,12.5,80.094,12.055,80.168,11.62z"/>
	<path fill-rule="evenodd" clip-rule="evenodd" fill="#989898" d="M65.902,11.5c-0.002,0.835-0.152,1.633-0.541,2.375
		c-0.516,0.984-1.311,1.643-2.383,1.942c-1.217,0.34-2.424,0.315-3.58-0.23c-1.252-0.591-1.92-1.632-2.129-2.972
		c-0.162-1.047-0.098-2.087,0.336-3.073c0.566-1.296,1.586-2.028,2.953-2.283c0.889-0.166,1.781-0.16,2.65,0.114
		c1.551,0.491,2.352,1.615,2.607,3.172C65.869,10.859,65.875,11.182,65.902,11.5z M63.918,11.684
		c-0.059-0.442-0.086-0.809-0.16-1.166c-0.23-1.088-1.039-1.743-2.146-1.765c-1.098-0.022-1.951,0.61-2.238,1.665
		c-0.158,0.588-0.189,1.179-0.125,1.789c0.137,1.24,0.818,2.03,2.041,2.197c1.016,0.139,2.016-0.258,2.367-1.41
		C63.791,12.549,63.842,12.077,63.918,11.684z"/>
	<path fill-rule="evenodd" clip-rule="evenodd" fill="#989898" d="M66.934,13.713c0.17,0.099,0.293,0.176,0.426,0.244
		c0.766,0.398,1.561,0.657,2.439,0.476c0.377-0.077,0.672-0.261,0.744-0.669c0.072-0.406-0.082-0.732-0.436-0.933
		c-0.352-0.198-0.725-0.359-1.086-0.539c-0.346-0.172-0.697-0.335-1.031-0.522c-1.396-0.784-1.428-3.018-0.115-3.941
		c0.547-0.384,1.148-0.584,1.811-0.644c0.723-0.065,1.42,0.041,2.113,0.231c0.184,0.053,0.258,0.144,0.252,0.34
		c-0.012,0.489-0.004,0.978-0.004,1.507c-0.158-0.079-0.285-0.15-0.416-0.209c-0.629-0.279-1.275-0.457-1.971-0.313
		c-0.408,0.083-0.727,0.371-0.77,0.73c-0.043,0.396,0.094,0.731,0.459,0.926c0.33,0.177,0.678,0.322,1.016,0.488
		c0.346,0.169,0.695,0.334,1.029,0.523c1.57,0.891,1.457,3.248-0.107,4.112c-0.791,0.437-1.646,0.585-2.533,0.471
		c-0.537-0.069-1.062-0.222-1.594-0.335c-0.18-0.038-0.234-0.145-0.23-0.325C66.941,14.808,66.934,14.283,66.934,13.713z"/>
	<path fill-rule="evenodd" clip-rule="evenodd" fill="#989898" d="M50.557,13.795c0,0.498,0.012,1.023-0.012,1.547
		c-0.002,0.086-0.133,0.194-0.229,0.241c-0.754,0.368-1.564,0.482-2.391,0.441c-0.92-0.044-1.779-0.302-2.504-0.904
		c-0.797-0.663-1.25-1.521-1.396-2.537c-0.172-1.188-0.029-2.336,0.586-3.383c0.746-1.27,1.912-1.872,3.348-2.009
		c0.787-0.076,1.555,0.006,2.305,0.261c0.223,0.075,0.311,0.19,0.303,0.431c-0.018,0.494-0.006,0.991-0.006,1.531
		c-0.252-0.136-0.451-0.254-0.66-0.355c-1.158-0.558-2.447-0.35-3.234,0.541c-0.6,0.68-0.758,1.507-0.67,2.375
		c0.041,0.396,0.146,0.802,0.311,1.161c0.494,1.069,1.785,1.503,2.857,1.2C49.629,14.205,50.07,13.987,50.557,13.795z"/>
	<path fill-rule="evenodd" clip-rule="evenodd" fill="#989898" d="M54.158,8.771c0.051-0.094,0.102-0.188,0.15-0.282
		c0.502-0.989,1.363-1.429,2.441-1.226c0.098,0.018,0.244,0.147,0.246,0.229c0.021,0.562,0.012,1.127,0.012,1.712
		c-0.27-0.069-0.508-0.14-0.75-0.19c-0.729-0.151-1.289,0.112-1.705,0.711c-0.383,0.55-0.475,1.183-0.48,1.826
		c-0.014,1.31-0.01,2.618,0,3.928c0.002,0.252-0.059,0.354-0.33,0.34c-0.461-0.022-0.924-0.012-1.385-0.003
		c-0.184,0.003-0.244-0.062-0.244-0.246c0.006-2.656,0.006-5.312,0.002-7.969c0-0.163,0.041-0.242,0.221-0.238
		c0.5,0.008,0.998,0.007,1.498,0c0.168-0.003,0.24,0.056,0.234,0.229c-0.006,0.301-0.002,0.603,0,0.903
		c0.002,0.088,0.014,0.176,0.021,0.264C54.113,8.762,54.137,8.766,54.158,8.771z"/>
	<path fill-rule="evenodd" clip-rule="evenodd" fill="#989898" d="M40.572,11.572c0-1.299,0.008-2.599-0.004-3.898
		c-0.002-0.253,0.074-0.324,0.32-0.314c0.461,0.019,0.922,0.012,1.385,0.002c0.184-0.004,0.246,0.061,0.246,0.244
		c-0.006,2.656-0.006,5.311,0,7.967c0,0.187-0.068,0.246-0.25,0.243c-0.469-0.009-0.941-0.013-1.412,0.002
		c-0.223,0.006-0.291-0.064-0.289-0.29C40.578,14.21,40.572,12.891,40.572,11.572z"/>
	<path fill-rule="evenodd" clip-rule="evenodd" fill="#989898" d="M40.4,4.866c0.004-0.642,0.525-1.132,1.195-1.122
		c0.672,0.009,1.154,0.503,1.158,1.162c0.002,0.596-0.449,1.102-1.184,1.1C40.768,6.004,40.354,5.401,40.4,4.866z"/>
</g>
</svg>
