<?xml version="1.0" encoding="utf-8"?>
<!-- Generator: Adobe Illustrator 16.0.4, SVG Export Plug-In . SVG Version: 6.00 Build 0)  -->
<!DOCTYPE svg PUBLIC "-//W3C//DTD SVG 1.1//EN" "http://www.w3.org/Graphics/SVG/1.1/DTD/svg11.dtd">
<svg version="1.1" id="Layer_1" xmlns="http://www.w3.org/2000/svg" xmlns:xlink="http://www.w3.org/1999/xlink" x="0px" y="0px"
	 width="78.836px" height="26.633px" viewBox="0 0 78.836 26.633" enable-background="new 0 0 78.836 26.633" xml:space="preserve">
<g>
	<polygon fill-rule="evenodd" clip-rule="evenodd" fill="#989898" points="5.967,0.508 0,0.499 0,25.853 10.094,25.89 
		10.094,21.227 5.918,21.189 5.967,0.508 	"/>
	<polygon fill-rule="evenodd" clip-rule="evenodd" fill="#989898" points="26.789,25.853 36.732,25.89 36.732,21.048 32.607,21.048 
		32.607,14.948 36.732,14.948 36.732,10.284 32.607,10.284 32.625,5.296 36.771,5.283 36.787,0.562 26.812,0.562 26.789,25.853 	"/>
	<polygon fill-rule="evenodd" clip-rule="evenodd" fill="#989898" points="67.668,5.296 71.873,5.296 71.83,0.562 61.855,0.562 
		61.828,25.853 71.777,25.89 71.777,21.048 67.65,21.048 67.65,14.948 71.777,14.948 71.777,10.284 67.65,10.284 67.668,5.296 	"/>
	<path fill-rule="evenodd" clip-rule="evenodd" fill="#989898" d="M53.793,14.983c0,0-1.293-9.471-2.01-14.278h-0.145l0.145-0.072
		h-5.166l-1.795,14.71L43.029,0.562l-5.67-0.054l4.234,25.455l5.766-0.05l1.912-13.871l1.795,13.921l5.74-0.05l4.322-25.405
		l-5.688,0.054L53.793,14.983L53.793,14.983z"/>
	<path fill-rule="evenodd" clip-rule="evenodd" fill="#989898" d="M14.471,0.489c-1.795,0.574-3.516,2.152-3.732,4.09v17.006
		c0.072,1.005,0.359,1.865,1.004,2.655c2.227,2.727,6.389,2.727,9.473,1.938c1.795-0.574,3.695-2.153,3.84-4.091L25.09,5.87
		c0-1.004-0.143-1.864-0.572-2.653C22.578-0.3,17.916-0.443,14.471,0.489L14.471,0.489z M19.373,20.891
		c-0.143,0.502-0.67,0.766-1.1,0.839c-0.646,0.143-1.148-0.073-1.578-0.503l-0.287-0.503V5.584c0.143-0.573,0.717-0.86,1.363-0.933
		c0.574-0.072,1.004,0.144,1.434,0.574l0.217,0.501L19.373,20.891L19.373,20.891z"/>
	<polygon fill-rule="evenodd" clip-rule="evenodd" fill="#989898" points="78.836,25.89 73.166,25.89 73.148,20.329 78.811,20.292 
		78.836,25.89 	"/>
</g>
</svg>
