<?xml version="1.0" encoding="utf-8"?>
<!-- Generator: Adobe Illustrator 16.0.4, SVG Export Plug-In . SVG Version: 6.00 Build 0)  -->
<!DOCTYPE svg PUBLIC "-//W3C//DTD SVG 1.1//EN" "http://www.w3.org/Graphics/SVG/1.1/DTD/svg11.dtd">
<svg version="1.1" id="Layer_1" xmlns="http://www.w3.org/2000/svg" xmlns:xlink="http://www.w3.org/1999/xlink" x="0px" y="0px"
	 width="75.371px" height="37.094px" viewBox="0 0 75.371 37.094" enable-background="new 0 0 75.371 37.094" xml:space="preserve">
<g>
	<path fill="#989898" d="M47.681,7.731l-6.262,4.549l2.391,7.365c0.021,0.058,0,0.122-0.055,0.162c-0.053,0.039-0.127,0.039-0.176,0
		l-6.26-4.548l-6.26,4.548c-0.053,0.039-0.121,0.039-0.176,0c-0.053-0.04-0.08-0.1-0.059-0.16l2.393-7.367l-6.26-4.549
		c-0.055-0.034-0.074-0.099-0.055-0.165c0.021-0.063,0.078-0.107,0.141-0.107h7.738l2.393-7.354C37.195,0.041,37.251,0,37.32,0
		c0.064,0,0.125,0.041,0.145,0.104l2.387,7.354h7.742c0.062,0,0.121,0.044,0.145,0.107C47.757,7.633,47.732,7.697,47.681,7.731z"/>
	<polygon fill="#989898" points="19.505,19.028 19.505,17.575 19.22,17.575 19.22,17.106 20.324,17.106 20.324,17.575 
		20.025,17.575 20.025,19.028 	"/>
	<path fill="#989898" d="M21.464,17.996c0.141,0,0.213-0.118,0.213-0.247c0-0.168-0.104-0.237-0.244-0.23v0.475L21.464,17.996z
		 M21.716,19.028l-0.285-0.8l-0.006,0.005c0,0.094,0.008,0.188,0.008,0.281v0.514h-0.521v-1.922h0.504
		c0.449,0,0.775,0.133,0.775,0.639c0,0.211-0.09,0.402-0.297,0.483l0.385,0.8H21.716z"/>
	<path fill="#989898" d="M23.49,18.37l-0.055-0.444c-0.018-0.118-0.025-0.242-0.037-0.36h-0.006
		c-0.016,0.118-0.031,0.242-0.051,0.36l-0.068,0.444H23.49z M23.591,19.028L23.55,18.78h-0.346l-0.045,0.248h-0.531l0.457-1.922
		h0.631l0.41,1.922H23.591z"/>
	<path fill="#989898" d="M25.121,18.564c0.236-0.003,0.279-0.296,0.279-0.48c0-0.206-0.043-0.499-0.279-0.499V18.564z
		 M24.601,17.106h0.422c0.586,0,0.906,0.371,0.906,0.954c0,0.885-0.557,0.968-0.873,0.968h-0.455V17.106z"/>
	<polygon fill="#989898" points="26.509,17.106 27.476,17.106 27.476,17.562 27.027,17.562 27.027,17.829 27.427,17.829 
		27.427,18.282 27.027,18.282 27.027,18.573 27.476,18.573 27.476,19.028 26.509,19.028 	"/>
	<path fill="#989898" d="M48.367,19.028l-0.047-1.211h-0.008c-0.021,0.144-0.041,0.281-0.064,0.423l-0.148,0.788h-0.422
		l-0.182-1.211h-0.004c-0.002,0.144,0,0.289-0.008,0.428l-0.043,0.783h-0.559l0.223-1.922h0.648l0.148,1.021h0.004
		c0.016-0.121,0.029-0.236,0.055-0.357l0.125-0.664h0.637l0.186,1.922H48.367z"/>
	<path fill="#989898" d="M50.111,18.37l-0.057-0.444c-0.016-0.118-0.025-0.242-0.035-0.36h-0.01
		c-0.014,0.118-0.023,0.242-0.045,0.36L49.89,18.37H50.111z M50.212,19.028l-0.039-0.248h-0.348l-0.045,0.248h-0.535l0.461-1.922
		h0.635l0.404,1.922H50.212z"/>
	<path fill="#989898" d="M51.751,17.996c0.135,0,0.211-0.118,0.211-0.247c0-0.168-0.102-0.237-0.244-0.23v0.475L51.751,17.996z
		 M52.001,19.028l-0.287-0.8l-0.006,0.005c0.006,0.094,0.01,0.188,0.01,0.281v0.514h-0.52v-1.922h0.5
		c0.451,0,0.777,0.133,0.777,0.639c0,0.211-0.092,0.402-0.299,0.483l0.389,0.8H52.001z"/>
	<polygon fill="#989898" points="54.445,17.106 54.031,18.035 54.496,19.028 53.935,19.028 53.615,18.147 53.611,18.147 
		53.611,19.028 53.091,19.028 53.091,17.106 53.611,17.106 53.611,17.924 53.615,17.924 53.9,17.106 	"/>
	<path fill="#989898" d="M14.464,31.843c-0.211-0.576-0.041-2.338,0.928-2.668c1.02-0.352,1.646,0.173,1.953,1.204
		c0.113,0.38,0.088,0.785-0.035,0.935c-0.182,0.221-0.504,0.35-0.795,0.448l-0.766,0.254C15,32.271,14.638,32.323,14.464,31.843
		 M19.287,33.979c-0.496,0.499-1.141,0.992-1.777,1.195c-0.596,0.192-2.303,0.34-2.801-1.065c-0.109-0.307-0.023-0.402,0.256-0.485
		c0.41-0.118,1.467-0.432,2.588-0.85c1.012-0.379,1.92-0.846,2.205-1.037c0.506-0.329,0.58-0.801,0.359-1.305
		c-0.713-1.603-2.328-3.278-5.004-2.771c-2.133,0.407-3.654,2.325-3.654,4.521c0,2.715,1.635,4.301,3.719,4.797
		c1.926,0.453,4.188-0.479,5.158-2.047C20.718,34.329,19.636,33.608,19.287,33.979"/>
	<path fill="#989898" d="M39.41,31.843c-0.127-0.342-0.119-1.114,0.119-1.747c0.158-0.424,0.396-0.758,0.811-0.921
		c0.463-0.189,0.863-0.138,1.176,0.042c0.357,0.203,0.611,0.61,0.775,1.162c0.113,0.38,0.088,0.785-0.035,0.935
		c-0.184,0.221-0.465,0.328-0.797,0.448c-0.332,0.118-0.623,0.215-0.764,0.256C39.939,32.256,39.583,32.323,39.41,31.843
		 M44.23,33.979c-0.494,0.499-1.141,0.992-1.77,1.195c-0.602,0.192-2.309,0.34-2.809-1.065c-0.109-0.307-0.02-0.402,0.258-0.485
		c0.408-0.118,1.469-0.432,2.586-0.85c1.016-0.379,1.922-0.846,2.205-1.037c0.508-0.329,0.584-0.801,0.359-1.305
		c-0.709-1.603-2.324-3.278-5.002-2.771c-2.129,0.407-3.656,2.325-3.656,4.521c0,2.715,1.635,4.301,3.721,4.797
		c1.922,0.453,4.189-0.479,5.156-2.047C45.664,34.329,44.58,33.608,44.23,33.979"/>
	<path fill="#989898" d="M58.423,31.843c-0.125-0.342-0.115-1.114,0.121-1.747c0.158-0.424,0.396-0.758,0.809-0.921
		c0.465-0.189,0.867-0.138,1.178,0.042c0.357,0.203,0.611,0.61,0.775,1.162c0.113,0.38,0.088,0.785-0.033,0.935
		c-0.184,0.221-0.467,0.328-0.799,0.448c-0.33,0.118-0.627,0.215-0.764,0.256C58.957,32.256,58.599,32.323,58.423,31.843
		 M63.248,33.979c-0.494,0.499-1.139,0.992-1.775,1.195c-0.596,0.192-2.307,0.34-2.803-1.065c-0.109-0.307-0.023-0.402,0.254-0.485
		c0.412-0.118,1.469-0.432,2.59-0.85c1.014-0.379,1.922-0.846,2.203-1.037c0.51-0.329,0.584-0.801,0.361-1.305
		c-0.711-1.603-2.326-3.278-5.004-2.771c-2.131,0.407-3.656,2.325-3.656,4.521c0,2.715,1.637,4.301,3.719,4.797
		c1.926,0.453,4.188-0.479,5.158-2.047C64.679,34.329,63.599,33.608,63.248,33.979"/>
	<path fill="#989898" d="M4.503,31.128c-0.148,0-0.271,0.124-0.271,0.272l0.004,3.078c0.004,0.478,0.145,0.796,0.406,0.911
		c0.137,0.061,0.443,0.204,0.617,0.283c0.121,0.055,0.123,0.173,0.107,0.329c-0.014,0.141-0.055,0.536-0.068,0.687
		c-0.02,0.155-0.143,0.22-0.383,0.22H0.462c-0.225,0-0.365-0.036-0.387-0.22c-0.012-0.15-0.053-0.57-0.066-0.709
		c-0.021-0.174,0.014-0.268,0.125-0.314c0.146-0.071,0.473-0.216,0.613-0.283c0.273-0.129,0.391-0.501,0.391-0.894v-7.606
		c0-0.426-0.117-0.77-0.428-0.911c-0.139-0.067-0.436-0.198-0.576-0.265c-0.121-0.059-0.15-0.167-0.127-0.322
		c0.02-0.141,0.051-0.379,0.068-0.523c0.027-0.184,0.162-0.227,0.387-0.227H4.71c0.223,0,0.354,0.043,0.381,0.227
		c0.02,0.145,0.053,0.383,0.07,0.523c0.023,0.155-0.006,0.264-0.123,0.322c-0.15,0.084-0.363,0.202-0.498,0.277
		c-0.186,0.098-0.301,0.306-0.305,0.795l-0.004,2.216c0,0.153,0.123,0.272,0.271,0.272h2.379c0.15,0,0.27-0.119,0.27-0.272v-2.216
		c-0.004-0.489-0.125-0.697-0.309-0.795c-0.131-0.075-0.346-0.193-0.498-0.277c-0.113-0.059-0.145-0.167-0.123-0.322
		c0.02-0.141,0.053-0.379,0.076-0.523c0.021-0.184,0.152-0.227,0.377-0.227h4.248c0.225,0,0.355,0.043,0.383,0.227
		c0.021,0.145,0.053,0.383,0.072,0.523c0.025,0.155-0.01,0.264-0.127,0.322c-0.145,0.066-0.436,0.197-0.576,0.265
		c-0.311,0.142-0.428,0.485-0.428,0.911l-0.002,7.606c0,0.393,0.115,0.765,0.391,0.894c0.143,0.067,0.469,0.212,0.617,0.283
		c0.111,0.047,0.145,0.141,0.125,0.314c-0.014,0.139-0.057,0.559-0.072,0.709c-0.018,0.184-0.158,0.22-0.383,0.22H6.468
		c-0.242,0-0.365-0.064-0.379-0.22c-0.016-0.15-0.055-0.546-0.07-0.687c-0.018-0.156-0.014-0.274,0.104-0.329
		c0.176-0.079,0.48-0.223,0.625-0.283c0.26-0.115,0.4-0.434,0.404-0.911V31.4c0-0.148-0.119-0.272-0.27-0.272H4.503z"/>
	<path fill="#989898" d="M52.228,30.884c0,0,1.613,2.919,2.055,3.718c0.332,0.61,0.709,0.78,1.219,1.067
		c0.131,0.075,0.168,0.125,0.148,0.37c-0.018,0.192-0.049,0.483-0.062,0.633c-0.023,0.212-0.172,0.236-0.383,0.236H52.83
		c-0.301,0-0.418-0.062-0.527-0.257c-0.113-0.205-2.1-3.824-2.1-3.824l-0.752,0.719v0.996c0.008,0.46,0.217,0.756,0.42,0.869
		c0.137,0.074,0.336,0.188,0.496,0.277c0.127,0.066,0.137,0.154,0.117,0.351c-0.012,0.139-0.051,0.499-0.064,0.649
		c-0.014,0.157-0.129,0.223-0.381,0.223h-3.955c-0.229,0-0.367-0.039-0.389-0.223c-0.014-0.15-0.051-0.539-0.066-0.677
		c-0.02-0.175,0.01-0.264,0.125-0.329c0.15-0.083,0.365-0.201,0.5-0.275c0.195-0.109,0.354-0.4,0.354-0.879v-7.726
		c0-0.534-0.205-0.778-0.361-0.864c-0.115-0.064-0.43-0.242-0.504-0.283c-0.113-0.063-0.133-0.184-0.113-0.332
		c0.021-0.139,0.045-0.316,0.066-0.463c0.027-0.195,0.152-0.227,0.385-0.227h2.859c0.24,0,0.512,0.18,0.512,0.519v5.902
		c0,0,1.607-1.441,1.84-1.655c0.17-0.151,0.123-0.315,0.025-0.358c-0.162-0.075-0.346-0.156-0.449-0.204
		c-0.111-0.05-0.17-0.114-0.15-0.301c0.018-0.178,0.049-0.465,0.062-0.602c0.016-0.177,0.074-0.247,0.365-0.247h3.496
		c0.221,0,0.293,0.073,0.307,0.217c0.016,0.163,0.053,0.503,0.072,0.666c0.01,0.132-0.08,0.208-0.273,0.276
		c-0.504,0.184-0.725,0.317-1.408,0.977C52.912,30.234,52.228,30.884,52.228,30.884"/>
	<path fill="#989898" d="M24.587,34.558c0.006,0.456,0.158,0.74,0.363,0.854c0.131,0.074,0.332,0.188,0.496,0.277
		c0.123,0.066,0.133,0.154,0.119,0.351c-0.016,0.139-0.049,0.499-0.068,0.649c-0.016,0.157-0.125,0.223-0.381,0.223h-3.955
		c-0.225,0-0.367-0.041-0.387-0.223c-0.014-0.15-0.053-0.539-0.07-0.677c-0.018-0.175,0.014-0.264,0.129-0.329
		c0.148-0.083,0.361-0.201,0.498-0.275c0.195-0.109,0.354-0.4,0.354-0.879v-4.33c-0.002-0.58-0.17-0.852-0.361-0.961
		c-0.109-0.06-0.27-0.153-0.344-0.193c-0.115-0.066-0.133-0.178-0.113-0.325c0.021-0.14,0.053-0.37,0.07-0.519
		c0.029-0.182,0.164-0.222,0.385-0.222h3c0.146,0,0.266,0.118,0.266,0.265V34.558z"/>
	<path fill="#989898" d="M22.906,24.388c-0.879,0-1.588,0.685-1.588,1.53c0,0.847,0.709,1.533,1.588,1.533
		c0.877,0,1.588-0.687,1.588-1.533C24.494,25.072,23.783,24.388,22.906,24.388"/>
	<path fill="#989898" d="M34.908,30.2c0-1.586-0.717-2.191-1.555-2.461c-0.961-0.308-2.127,0.2-2.725,0.474
		c-0.242,0.11-0.465,0.229-0.465,0.229c-0.156-0.365-0.238-0.467-0.463-0.467h-2.824c-0.227,0-0.359,0.044-0.387,0.226
		c-0.02,0.148-0.051,0.379-0.072,0.519c-0.018,0.147,0,0.259,0.119,0.325c0.072,0.04,0.229,0.134,0.342,0.193
		c0.188,0.109,0.357,0.381,0.361,0.961v4.33c0,0.479-0.158,0.77-0.355,0.879c-0.133,0.074-0.346,0.192-0.5,0.275
		c-0.113,0.065-0.145,0.154-0.125,0.329c0.016,0.138,0.055,0.526,0.068,0.677c0.018,0.184,0.162,0.22,0.383,0.22h3.963
		c0.25,0,0.357-0.062,0.379-0.22c0.014-0.15,0.053-0.511,0.066-0.649c0.014-0.196,0.006-0.284-0.121-0.351
		c-0.16-0.091-0.361-0.203-0.494-0.277c-0.256-0.146-0.365-0.523-0.365-0.866l0.002-3.44c0-0.898,0.438-1.406,1.041-1.479
		c0.4-0.05,0.912,0.198,0.912,0.905v4.635c0,1.322,1.121,1.827,2.004,1.827c0.936,0,1.73-0.429,2.086-1.175
		c0.113-0.234-0.023-0.416-0.143-0.541c-0.131-0.146-0.252-0.277-0.463-0.166c-0.213,0.108-0.438,0.321-0.566,0.247
		c-0.094-0.049-0.104-0.134-0.104-0.34V30.2z"/>
	<path fill="#989898" d="M73.328,30.2c0-1.586-0.721-2.191-1.553-2.461c-0.963-0.308-2.127,0.2-2.725,0.474
		c-0.24,0.11-0.467,0.229-0.467,0.229c-0.154-0.365-0.238-0.467-0.465-0.467h-2.82c-0.227,0-0.359,0.044-0.387,0.226
		c-0.02,0.148-0.049,0.379-0.07,0.519c-0.018,0.147,0,0.259,0.117,0.325c0.07,0.04,0.23,0.134,0.342,0.193
		c0.188,0.109,0.357,0.381,0.357,0.961l0.002,4.33c0,0.479-0.16,0.77-0.352,0.879c-0.139,0.074-0.35,0.192-0.5,0.275
		c-0.119,0.065-0.146,0.154-0.129,0.329c0.014,0.138,0.055,0.526,0.072,0.677c0.018,0.184,0.158,0.22,0.385,0.22h3.955
		c0.256,0,0.363-0.062,0.383-0.22c0.014-0.15,0.051-0.511,0.064-0.649c0.016-0.196,0.006-0.284-0.115-0.351
		c-0.166-0.091-0.367-0.203-0.498-0.277c-0.258-0.146-0.363-0.523-0.363-0.866v-3.44c0-0.898,0.441-1.406,1.043-1.479
		c0.398-0.05,0.912,0.198,0.912,0.905v4.635c0,1.322,1.123,1.827,2.002,1.827c0.934,0,1.729-0.429,2.086-1.175
		c0.111-0.234-0.027-0.416-0.141-0.541C74.332,35.13,74.212,34.999,74,35.11c-0.217,0.108-0.438,0.321-0.566,0.247
		c-0.094-0.049-0.105-0.134-0.105-0.34V30.2z"/>
	<path fill="#989898" d="M73.931,24.836c0-0.149-0.16-0.202-0.291-0.202h-0.307v0.434h0.346
		C73.828,25.067,73.931,24.97,73.931,24.836 M74.349,25.716c0.031,0.202,0.123,0.35,0.174,0.46c-0.211,0-0.291,0-0.471,0
		c-0.092-0.203-0.109-0.337-0.156-0.476c-0.059-0.205-0.188-0.264-0.404-0.264h-0.16v0.739H72.9v-1.888h0.9
		c0.209,0,0.572,0.123,0.572,0.523c0,0.256-0.141,0.43-0.277,0.483C74.248,25.395,74.316,25.513,74.349,25.716 M75.015,25.296
		c0-0.771-0.625-1.396-1.393-1.396c-0.773,0-1.4,0.625-1.4,1.396c0,0.77,0.627,1.399,1.4,1.399
		C74.39,26.695,75.015,26.065,75.015,25.296 M75.371,25.296c0,0.968-0.785,1.751-1.748,1.751c-0.969,0-1.756-0.783-1.756-1.751
		s0.787-1.75,1.756-1.748C74.585,23.546,75.371,24.328,75.371,25.296"/>
</g>
</svg>
