<?xml version="1.0" encoding="utf-8"?>
<!-- Generator: Adobe Illustrator 16.0.0, SVG Export Plug-In . SVG Version: 6.00 Build 0)  -->
<!DOCTYPE svg PUBLIC "-//W3C//DTD SVG 1.1//EN" "http://www.w3.org/Graphics/SVG/1.1/DTD/svg11.dtd">
<svg version="1.1" id="Layer_1" xmlns="http://www.w3.org/2000/svg" xmlns:xlink="http://www.w3.org/1999/xlink" x="0px" y="0px"
	 width="95.846px" height="14.032px" viewBox="0 0 95.846 14.032" enable-background="new 0 0 95.846 14.032" xml:space="preserve">
<g>
	<path fill-rule="evenodd" clip-rule="evenodd" fill="#FFFFFF" d="M52.559,6.517c0,0-0.934-0.576-1.51-0.801
		c0,0-1.785-0.826-2.139-1.221c0,0-0.695-0.654-0.289-1.416c0,0,0.172-0.498,0.904-0.498c0,0,0.959,0.053,0.959,0.84V4.53h3.43
		l-0.006-1.635c0,0,0.262-2.678-4.041-2.793c0,0-3.385-0.225-4.354,1.6c0,0-0.383,0.406-0.383,1.822v1.023
		c0,0-0.039,1.182,0.566,1.941c0,0,0.34,0.5,1.18,1.049c0,0,1.705,0.92,2.729,1.445c0,0,1.033,0.59,0.896,1.527
		c0,0-0.084,0.963-1.08,0.924c0,0-0.914-0.043-0.914-0.986V9.341h-3.654v1.611c0,0-0.102,3.08,4.596,3.08
		c0,0,4.486,0.092,4.695-3.162V9.56C54.145,9.56,54.303,7.565,52.559,6.517L52.559,6.517z"/>
	<polygon fill-rule="evenodd" clip-rule="evenodd" fill="#FFFFFF" points="34.998,0.485 33.852,7.683 33.582,7.683 32.484,0.55 
		26.756,0.55 26.469,13.581 29.861,13.581 29.902,3.763 30.168,3.763 31.967,13.581 35.535,13.581 37.311,3.765 37.547,3.765 
		37.629,13.581 41.039,13.581 40.672,0.485 34.998,0.485 	"/>
	<polygon fill-rule="evenodd" clip-rule="evenodd" fill="#FFFFFF" points="14.807,0.54 12.551,13.567 16.201,13.567 17.537,3.466 
		17.84,3.466 19.176,13.567 22.826,13.567 20.57,0.54 14.807,0.54 	"/>
	<path fill-rule="evenodd" clip-rule="evenodd" fill="#FFFFFF" d="M91.43,6.337v1.922h0.938v2.063c0,1.008-0.861,1.027-0.861,1.027
		c-1.049,0-1.01-0.959-1.01-0.959V3.255c0-0.736,0.932-0.773,0.932-0.773c0.893,0,0.898,0.875,0.898,0.875v1.086h3.438
		c0.111-2.117-0.311-2.631-0.311-2.631c-0.852-1.916-4.078-1.811-4.078-1.811c-4.959,0-4.408,3.805-4.408,3.805v6.9
		c0.105,3.566,4.992,3.205,5.074,3.199c2.174-0.24,2.83-0.93,2.83-0.93c0.604-0.447,0.76-1.07,0.76-1.07
		c0.172-0.361,0.215-1.516,0.215-1.516V6.337H91.43L91.43,6.337z"/>
	<polygon fill-rule="evenodd" clip-rule="evenodd" fill="#FFFFFF" points="80.035,8.458 79.885,8.458 76.395,0.487 72.223,0.487 
		72.223,13.583 75.619,13.583 75.414,5.614 75.566,5.614 79.182,13.583 83.23,13.583 83.23,0.487 79.789,0.487 80.035,8.458 	"/>
	<path fill-rule="evenodd" clip-rule="evenodd" fill="#FFFFFF" d="M63.928,10.321c0,0,0.049,1.074-0.947,1.074
		c0,0-1.049,0.057-1.049-1.049l-0.01-9.852h-3.727v9.773c0,0-0.383,3.699,4.838,3.699c0,0,4.535,0.053,4.535-3.529V0.495h-3.641
		V10.321L63.928,10.321z"/>
	<path fill-rule="evenodd" clip-rule="evenodd" fill="#FFFFFF" d="M7.703,6.517c0,0-0.932-0.576-1.508-0.801
		c0,0-1.785-0.826-2.139-1.221c0,0-0.695-0.656-0.289-1.416c0,0,0.172-0.498,0.904-0.498c0,0,0.959,0.053,0.959,0.84V4.53h3.43
		L9.055,2.896c0,0,0.262-2.678-4.041-2.793c0,0-0.322-0.021-0.799,0.002c0,0-2.605,0.139-3.537,1.57
		c-0.006,0.01-0.014,0.018-0.02,0.027c0,0-0.379,0.406-0.379,1.822v1.023c0,0-0.041,1.182,0.564,1.941c0,0,0.34,0.5,1.18,1.049
		c0,0,1.705,0.92,2.729,1.443c0,0,1.033,0.59,0.898,1.529c0,0-0.086,0.963-1.082,0.924c0,0-0.912-0.043-0.912-0.986V9.339H0v1.613
		c0,0-0.102,3.08,4.594,3.08c0,0,4.486,0.092,4.697-3.162V9.56C9.291,9.56,9.449,7.565,7.703,6.517L7.703,6.517z"/>
</g>
</svg>
