<?xml version="1.0" encoding="utf-8"?>
<!-- Generator: Adobe Illustrator 16.0.4, SVG Export Plug-In . SVG Version: 6.00 Build 0)  -->
<!DOCTYPE svg PUBLIC "-//W3C//DTD SVG 1.1//EN" "http://www.w3.org/Graphics/SVG/1.1/DTD/svg11.dtd">
<svg version="1.1" id="Layer_1" xmlns="http://www.w3.org/2000/svg" xmlns:xlink="http://www.w3.org/1999/xlink" x="0px" y="0px"
	 width="314px" height="284px" viewBox="0 0 314 284" enable-background="new 0 0 314 284" xml:space="preserve">
<g>
	<path fill-rule="evenodd" clip-rule="evenodd" fill="#EA514C" d="M177.745,157.086c14.233-4.291,25.458,0.117,34.234,11.894
		c1.515-1.497,2.982-2.748,4.113-4.342c8.619-12.147,15.849-25.049,21.12-39.008c0.708-1.876,1.443-3.752,1.982-5.679
		c1.573-5.619,4.785-10.074,9.211-13.813c2.245-1.896,4.776-3.244,7.271-4.702c0.599-0.35,1.222-0.83,1.57-1.408
		c1.67-2.775,4.104-4.638,6.914-6.109c3.024-1.584,6.286-2.252,9.646-2.361c3.898-0.129,7.802,0.014,11.629,0.863
		c6.404,1.422,11.714,4.672,16.111,9.549c2.614,2.9,4.784,6.019,5.975,9.752c0.455,1.428,0.935,2.878,1.132,4.354
		c0.833,6.232,0.426,12.332-2.217,18.156c-1.422,3.135-3.406,5.822-5.805,8.307c-4.542,4.705-10.107,7.447-16.344,8.93
		c-4.408,1.048-8.928,1.359-13.451,1.08c-4.446-0.273-8.886-0.75-13.104-2.322c-6.088-2.268-11.288-5.76-15.046-11.178
		c-0.126-0.182-0.269-0.351-0.413-0.519c-0.032-0.038-0.099-0.045-0.269-0.117c-1.457,3.618-2.916,7.235-4.372,10.855
		c-1.484,3.688-3.456,7.126-5.59,10.456c-2.104,3.282-4.308,6.51-6.652,9.621c-2.376,3.156-4.977,6.143-7.585,9.332
		c0.074,0.264,0.142,0.703,0.315,1.098c2.085,4.754,3.056,9.799,3.46,14.908c0.334,4.213,0.229,8.473,0.145,12.707
		c-0.128,6.373-1.108,12.656-2.792,18.787c-1.208,4.396-2.604,8.775-4.343,12.986c-3.784,9.165-8.611,17.779-15.221,25.233
		c-3.621,4.083-7.557,7.905-12.599,10.326c-3.281,1.575-6.631,2.958-10.291,3.261c-3.219,0.267-6.444,0.239-9.671-0.143
		c-3.688-0.436-7.211-1.453-10.562-2.979c-5.514-2.51-9.576-6.605-12.463-11.909c-2.898-5.325-3.657-11.025-3.063-16.973
		c0.171-1.713,0.234-3.454,0.591-5.129c0.888-4.167,2.5-8.063,4.545-11.81c2.156-3.949,4.969-7.379,7.936-10.715
		c7.277-8.185,16.003-14.668,24.743-21.137c4.481-3.316,8.99-6.594,13.485-9.891c0.446-0.326,0.879-0.67,1.4-1.068
		c-0.918-1.688-2.328-2.858-3.674-4.066c-3.356-3.016-7.423-4.405-11.802-5.064c-4.732-0.711-9.293,0.059-13.811,1.442
		c-2.087,0.64-4.11,1.392-6.03,2.433c-0.683,0.371-1.404,0.686-2.131,0.965c-1.628,0.628-2.25,0.496-3.355-0.838
		c-0.49-0.593-0.89-1.289-1.204-1.994c-1.798-4.043-3.227-8.189-3.279-12.686c-0.01-0.878-0.025-1.756,0-2.633
		c0.049-1.738,1.031-2.838,2.443-3.732c3.577-2.266,7.225-4.444,10.635-6.944c3.678-2.696,7.244-5.577,10.627-8.635
		c4.134-3.735,8.14-7.63,11.999-11.651c4.87-5.076,9.136-10.654,12.817-16.67c0.485-0.792,0.5-1.32-0.566-1.753
		c-0.427,0.31-0.922,0.65-1.4,1.017c-4.071,3.107-8.637,4.535-13.759,4.02c-2.709-0.271-5.209-1.205-7.48-2.674
		c-2.573-1.663-5.08-3.428-7.616-5.146c-0.458-0.311-0.923-0.608-1.567-1.033c-0.521,0.608-1.103,1.121-1.481,1.757
		c-1.709,2.872-3.474,5.719-5.009,8.683c-3.437,6.636-6.731,13.344-10.118,20.006c-2.223,4.372-4.422,8.76-6.785,13.058
		c-2.632,4.789-6.271,8.774-10.374,12.359c-5.542,4.843-11.662,8.812-18.372,11.786c-5.872,2.605-12.026,4.295-18.418,5.236
		c-4.557,0.67-9.104,0.719-13.669,0.658c-3.184-0.043-6.314-0.635-9.381-1.463c-6.398-1.729-12.457-4.275-17.787-8.258
		c-4.904-3.663-9.881-7.303-13.157-12.677c-1.604-2.632-2.868-5.433-3.633-8.405c-0.847-3.284-1.577-6.609-2.146-9.954
		c-0.764-4.493-1.385-9.013-1.958-13.535c-0.693-5.46-1.309-10.931-1.887-16.403c-0.34-3.209-0.57-6.429-0.8-9.648
		c-0.323-4.547-0.727-9.096-0.865-13.65c-0.162-5.35-0.128-10.707-0.077-16.061c0.035-3.674,0.24-7.347,0.377-11.018
		c0.064-1.724,0.152-3.445,0.218-5.167c0.021-0.552,0.003-1.104,0.003-1.956c-0.838,0.341-1.483,0.586-2.115,0.863
		c-4.646,2.039-9.22,4.229-13.593,6.808c-1.202,0.709-2.238,0.703-3.422,0.021c-1.764-1.016-3.328-2.221-4.439-3.955
		c-1.236-1.928-1.225-3.738,0.141-5.582c2.596-3.507,5.572-6.688,8.811-9.59c3.439-3.084,6.935-6.125,10.588-8.948
		c6.795-5.251,13.722-10.346,21.534-14.034c5.238-2.474,10.509-4.893,15.846-7.143c6.234-2.629,12.814-4.141,19.404-5.599
		c9.383-2.075,18.877-2.294,28.426-1.973c6.715,0.226,13.339,1.098,19.754,3.042c6.849,2.076,13.221,5.153,17.939,10.811
		c3.963,4.752,6.212,10.221,6.695,16.438c0.474,6.098,0.058,12.139-1.08,18.111c-0.889,4.666-2.5,9.133-4.636,13.395
		c-3.326,6.635-7.488,12.688-12.907,17.771c-7.485,7.025-15.743,12.974-25.244,17.014c-3.017,1.282-6.165,2.254-9.253,3.369
		c-0.402,0.145-0.801,0.297-1.174,0.659c0.356,0.022,0.713,0.077,1.069,0.064c6.402-0.243,12.703,0.642,18.866,2.196
		c6.727,1.697,12.893,4.68,17.869,9.68c1.206,1.211,2.122,2.712,3.152,4.094c0.458,0.615,0.869,1.266,1.458,2.129
		c0.686-1.861,1.281-3.462,1.864-5.066c0.742-2.042,1.618-4.05,2.174-6.143c0.741-2.788,1.279-5.635,1.815-8.473
		c0.97-5.141,1.802-10.309,2.835-15.437c0.638-3.172,1.643-6.265,3.289-9.077c2.293-3.916,5.604-6.223,10.305-6.27
		c2.048-0.021,3.989,0.348,5.86,1.135c2.619,1.103,5.228,2.229,7.845,3.336c4.291,1.812,8.666,1.767,13.071,0.515
		c2.572-0.73,5.107-1.586,7.681-2.31c1.119-0.312,2.287-0.581,3.438-0.609c1.682-0.041,3.19,0.688,4.368,1.84
		c4.147,4.059,7.489,8.672,9.544,14.161c1.283,3.428,0.875,6.897,0.482,10.391c-0.784,6.979-3.845,13.108-7.173,19.121
		c-3.068,5.542-7.09,10.403-11.246,15.138c-5.755,6.555-12.207,12.365-19.262,17.501c-0.618,0.45-1.209,0.937-1.812,1.407
		C177.723,156.852,177.734,156.97,177.745,157.086z M79.91,40.861c-0.261,0.539-0.535,1.021-0.737,1.533
		c-1.476,3.729-3.115,7.406-4.365,11.209c-2.558,7.783-4.659,15.701-6.237,23.748c-1.8,9.178-3.478,18.376-4.194,27.719
		c-0.322,4.214-0.735,8.424-0.912,12.645c-0.178,4.221-0.236,8.453-0.12,12.674c0.119,4.336,0.372,8.679,0.82,12.99
		c0.53,5.105,1.635,10.119,3.327,14.976c0.99,2.845,2.244,5.557,4.089,7.997c3.04,4.02,7.073,5.273,11.823,4.322
		c3.394-0.68,6.108-2.639,8.248-5.348c2.78-3.521,4.293-7.675,5.606-11.87c1.313-4.2,2.123-8.524,2.097-12.964
		c-0.015-2.831,0.219-5.684-0.075-8.486c-0.24-2.293-0.734-4.699-1.74-6.749c-3.503-7.134-9.098-11.54-17.262-12.192
		c-0.332-0.025-0.666-0.054-0.992-0.117c-2.014-0.395-2.845-1.285-3.118-3.338c-0.051-0.385-0.087-0.775-0.093-1.162
		c-0.042-2.781,0.563-3.877,3.42-3.957c4.646-0.131,8.69-1.892,12.33-4.57c3.333-2.453,6.17-5.482,8.721-8.736
		c2.808-3.581,4.809-7.631,6.25-11.936c1.896-5.667,2.436-11.529,2.272-17.472c-0.113-4.104-0.707-8.101-2.84-11.715
		c-1.282-2.175-2.714-4.243-4.896-5.617c-3.06-1.927-6.414-3.261-9.998-3.521C87.565,40.648,83.762,40.861,79.91,40.861z
		 M199.256,196.762c-0.608,0.43-1.115,0.762-1.596,1.129c-8.982,6.871-18.002,13.695-26.925,20.645
		c-3.868,3.011-7.487,6.32-10.416,10.316c-2.046,2.792-4.073,5.566-5.071,8.959c-1.655,5.629-1.715,11.097,1.615,16.197
		c1.154,1.769,2.518,3.405,4.375,4.518c3.729,2.23,7.766,3.254,12.119,3.092c4.42-0.164,8.458-1.466,11.94-4.183
		c4.155-3.242,7.264-7.393,9.584-12.087c3.842-7.775,6.031-16.023,6.472-24.692c0.303-5.954,0.239-11.912-0.602-17.835
		C200.464,200.801,200.146,198.783,199.256,196.762z M274.905,145.121c0.005-0.064,0.009-0.131,0.013-0.197
		c1.004,0,2.031,0.144,3.005-0.024c4.447-0.762,8.618-2.181,12.136-5.185c3.511-3.001,5.953-6.65,6.711-11.225
		c0.708-4.273,0.489-8.555-0.881-12.7c-1.62-4.904-4.601-8.735-9.251-11.132c-3.144-1.618-6.509-2.602-9.986-3.145
		c-1.522-0.236-3.18-0.551-4.618-0.193c-4.952,1.226-9.287,3.742-12.963,7.269c-1.719,1.649-3.268,3.503-4.723,5.396
		c-2.398,3.121-4.269,6.533-4.625,10.556c-0.285,3.208,0.056,6.323,1.689,9.2c3.518,6.193,9.261,9.139,15.869,10.638
		C269.752,144.938,272.359,144.892,274.905,145.121z"/>
	<path fill-rule="evenodd" clip-rule="evenodd" fill="#EA514C" d="M271.35,138.311c-0.655,0.299-1.107,0.599-1.604,0.718
		c-2.248,0.54-4.667-1.09-5.074-3.35c-0.829-4.604-1.35-9.239-1.362-13.923c-0.004-1.436,0.005-2.869-0.006-4.304
		c-0.004-0.482-0.053-0.965-0.095-1.679c-0.843,0.428-1.519,0.77-2.195,1.113c-0.627,0.318-1.341,0.565-1.831-0.067
		c-0.505-0.653-0.304-1.429,0.295-1.956c1.457-1.287,2.859-2.678,4.473-3.74c4.212-2.772,8.774-4.596,13.952-4.305
		c0.94,0.054,1.878,0.199,2.81,0.348c4.783,0.761,5.943,4.939,5.506,8.006c-0.535,3.75-2.406,6.657-5.982,8.275
		c-0.688,0.31-1.35,0.676-2.389,1.199c1.158,0.306,1.893,0.461,2.602,0.693c2.39,0.785,3.225,2.276,2.686,4.75
		c-0.332,1.523-0.68,3.043-1.012,4.564c-0.083,0.381-0.154,0.767-0.188,1.154c-0.057,0.656,0.059,1.272,0.833,1.404
		c0.718,0.119,0.979-0.474,1.155-0.988c0.266-0.783,0.428-1.602,0.678-2.572c0.48,0.098,0.926,0.188,1.342,0.271
		c0.023,3.316-2.26,5.586-5.627,5.553c-1.355-0.014-2.765-0.039-3.962-0.982c-0.938-0.738-1.621-1.609-1.577-2.79
		c0.068-1.878,0.292-3.751,0.464-5.626c0.046-0.496,0.181-0.986,0.208-1.484c0.064-1.176-0.361-1.908-1.277-2.305
		c-0.875-0.378-2.193-0.207-2.754,0.586c-0.598,0.846-1.24,1.811-1.385,2.791C269.611,132.529,269.363,135.437,271.35,138.311z
		 M272.713,112.848c-1.676,3.637-2.031,7.416-2.476,11.203c4.501,0.424,7.247-3.253,7.728-6.139
		c0.329-1.987-0.309-4.403-3.412-4.777C274.004,113.068,273.459,112.965,272.713,112.848z"/>
</g>
</svg>
