<?xml version="1.0" encoding="utf-8"?>
<!-- Generator: Adobe Illustrator 16.0.4, SVG Export Plug-In . SVG Version: 6.00 Build 0)  -->
<!DOCTYPE svg PUBLIC "-//W3C//DTD SVG 1.1//EN" "http://www.w3.org/Graphics/SVG/1.1/DTD/svg11.dtd">
<svg version="1.1" id="Layer_1" xmlns="http://www.w3.org/2000/svg" xmlns:xlink="http://www.w3.org/1999/xlink" x="0px" y="0px"
	 width="45.925px" height="45.998px" viewBox="0 0 45.925 45.998" enable-background="new 0 0 45.925 45.998" xml:space="preserve">
<g>
	<path fill="#989898" d="M3.322,13.725c0.156,2.887,2.328,4.6,2.328,4.6c3.5,3.406,11.977,7.717,13.943,8.697
		c0.029,0.006,0.131,0.039,0.189-0.037c0,0,0.082-0.064,0.041-0.17C14.43,15.031,7.049,6.096,7.049,6.096S3.031,9.906,3.322,13.725"
		/>
	<path fill="#989898" d="M4.18,30.268c1.531,2.729,4.113,4.846,6.793,4.191c1.854-0.459,6.053-3.389,7.436-4.383h-0.002
		c0.104-0.1,0.068-0.176,0.068-0.176c-0.037-0.119-0.184-0.119-0.184-0.119v-0.01L4.18,30.268z"/>
	<path fill="#989898" d="M0.127,19.061v2.66c0.213,1.352,0.68,2.209,0.68,2.209c1.529,3.234,4.445,4.217,4.445,4.217
		c1.357,0.553,2.705,0.59,2.705,0.59c0.012,0,0.045,0.002,0.102,0.004h7.885c1.098-0.004,2.043-0.006,2.598-0.008
		c0.092-0.006,0.145-0.096,0.145-0.096c0.07-0.113-0.053-0.211-0.053-0.211C12.436,24.244,0.426,17.822,0.426,17.822
		C0.289,18.246,0.193,18.66,0.127,19.061"/>
	<path fill="#989898" d="M17.354,0.432c-3.738,0.971-4.619,4.363-4.619,4.363c-0.686,2.131,0.014,4.475,0.014,4.475
		c1.248,5.531,7.385,14.623,8.705,16.531c0.092,0.094,0.166,0.053,0.166,0.053c0.143-0.033,0.127-0.17,0.127-0.17h0.006
		C23.783,5.383,19.623,0,19.623,0C19.01,0.059,17.354,0.432,17.354,0.432"/>
	<path fill="#989898" d="M24.186,25.697c0.014,0.129,0.107,0.156,0.107,0.156c0.137,0.055,0.203-0.078,0.203-0.078l0.004,0.004
		c1.354-1.961,7.455-11.004,8.697-16.51c0,0,0.672-2.67,0.023-4.475c0,0-0.924-3.445-4.668-4.357c0,0-1.076-0.271-2.221-0.438
		C26.332,0,22.148,5.387,24.186,25.697"/>
	<path fill="#989898" d="M27.637,29.783c0,0-0.125,0.018-0.16,0.107c0,0-0.027,0.125,0.051,0.191v0.002
		c1.352,0.967,5.445,3.834,7.42,4.387c0,0,3.648,1.246,6.814-4.199l-14.125-0.49V29.783z"/>
	<path fill="#989898" d="M27.326,28.414v0.002c0,0-0.113,0.074-0.074,0.211c0,0,0.059,0.1,0.143,0.1
		c2.221,0.008,10.629,0.018,10.84-0.02c0,0,1.082-0.049,2.428-0.561c0,0,2.99-0.951,4.541-4.346c0,0,1.389-2.77,0.314-6.004
		C45.518,17.797,33.525,24.236,27.326,28.414"/>
	<path fill="#989898" d="M26.148,26.758h0.002c0,0-0.062,0.137,0.037,0.227c0,0,0.1,0.072,0.191,0.018
		c2.021-1.004,10.434-5.283,13.92-8.678c0,0,2.205-1.773,2.324-4.619c0.248-3.951-3.725-7.609-3.725-7.609
		S31.537,15.002,26.148,26.758"/>
	<polygon fill="#989898" points="1.682,41.521 5.424,41.521 5.424,38.533 7.111,38.533 7.111,45.92 5.424,45.92 5.424,42.838 
		1.682,42.838 1.682,45.92 0,45.92 0,38.533 1.682,38.533 	"/>
	<path fill="#989898" d="M10.162,42.963c0,1.301,0.408,1.844,1.803,1.844c1.393,0,1.791-0.543,1.791-1.844v-4.43h1.682v4.465
		c0,0.943-0.109,1.594-0.469,1.986c-0.66,0.721-1.611,1.014-3.004,1.014c-1.395,0-2.363-0.293-3.018-1.014
		c-0.371-0.398-0.455-1.049-0.455-1.986v-4.465h1.67V42.963z"/>
	<path fill="#989898" d="M18.805,42.844h2.385l-1.213-2.834L18.805,42.844z M20.938,38.533l3.406,7.387h-1.875l-0.736-1.76h-3.471
		l-0.713,1.76h-1.783l3.387-7.387H20.938z"/>
	<polygon fill="#989898" points="25.102,38.533 26.955,44.213 28.514,38.533 30.496,38.533 32.287,44.213 34.016,38.533 
		35.738,38.533 33.27,45.92 31.205,45.92 29.5,40.406 28.012,45.92 25.963,45.92 23.299,38.533 	"/>
	<path fill="#989898" d="M38.004,41.535h4.654v1.289h-4.666c0.012,1.324,0.582,1.809,1.906,1.809h2.76v1.287h-2.842
		c-0.967,0-1.715-0.076-2.492-0.648c-0.824-0.604-1.225-1.572-1.225-2.91c0-2.611,1.189-3.828,3.762-3.828h2.797v1.289h-2.76
		C38.682,39.822,38.072,40.377,38.004,41.535"/>
	<rect x="44.141" y="38.533" fill="#989898" width="1.756" height="7.387"/>
</g>
</svg>
