<?xml version="1.0" encoding="utf-8"?>
<!-- Generator: Adobe Illustrator 16.0.0, SVG Export Plug-In . SVG Version: 6.00 Build 0)  -->
<!DOCTYPE svg PUBLIC "-//W3C//DTD SVG 1.1//EN" "http://www.w3.org/Graphics/SVG/1.1/DTD/svg11.dtd">
<svg version="1.1" id="Layer_1" xmlns="http://www.w3.org/2000/svg" xmlns:xlink="http://www.w3.org/1999/xlink" x="0px" y="0px"
	 width="29px" height="29px" viewBox="0 0 29 29" enable-background="new 0 0 29 29" xml:space="preserve">
<path fill-rule="evenodd" clip-rule="evenodd" fill="#CCCCCC" d="M3.722,0h21.555C27.324,0,29,1.675,29,3.723v21.555
	C29,27.325,27.324,29,25.276,29H3.722C1.674,29,0,27.325,0,25.277V3.723C0,1.675,1.674,0,3.722,0L3.722,0z M21.124,3.223
	c-0.717,0-1.306,0.587-1.306,1.305v3.125c0,0.718,0.589,1.305,1.306,1.305h3.278c0.719,0,1.306-0.587,1.306-1.305V4.527
	c0-0.717-0.587-1.305-1.306-1.305H21.124L21.124,3.223z M25.721,12.264h-2.553c0.242,0.789,0.373,1.623,0.373,2.488
	c0,4.824-4.036,8.734-9.014,8.734c-4.979,0-9.016-3.91-9.016-8.734c0-0.865,0.132-1.7,0.373-2.488H3.223v12.25
	c0,0.635,0.518,1.154,1.151,1.154h20.194c0.635,0,1.152-0.52,1.152-1.154V12.264L25.721,12.264z M14.527,8.793
	c-3.217,0-5.825,2.527-5.825,5.643c0,3.117,2.608,5.644,5.825,5.644c3.216,0,5.824-2.526,5.824-5.644
	C20.352,11.321,17.743,8.793,14.527,8.793z"/>
</svg>
