<?xml version="1.0" encoding="utf-8"?>
<!-- Generator: Adobe Illustrator 16.0.4, SVG Export Plug-In . SVG Version: 6.00 Build 0)  -->
<!DOCTYPE svg PUBLIC "-//W3C//DTD SVG 1.1//EN" "http://www.w3.org/Graphics/SVG/1.1/DTD/svg11.dtd">
<svg version="1.1" id="Layer_1" xmlns="http://www.w3.org/2000/svg" xmlns:xlink="http://www.w3.org/1999/xlink" x="0px" y="0px"
	 width="64.545px" height="51.225px" viewBox="0 0 64.545 51.225" enable-background="new 0 0 64.545 51.225" xml:space="preserve">
<g>
	<path fill-rule="evenodd" clip-rule="evenodd" fill="#989898" d="M63.372,26.222c-0.173-0.117-0.751,0.433-0.982,0.346
		c-0.261-0.087-0.464-0.434-0.665-0.521c-0.262-0.086-0.406,0.058-0.666,0c-0.203-0.028-0.058-0.347-0.232-0.434
		c-0.231-0.087-0.346,0.144-0.607,0.058c-0.203-0.058-0.346-0.434-0.52-0.521c-0.204-0.058-0.261,0.203-0.492,0.116
		c-0.318-0.116-0.404-0.347-0.607-0.433c-0.175-0.116-0.551,0.229-0.811,0.086c-0.26-0.115-0.26-1.013-0.436-1.1
		c-0.201-0.087-0.838,0.637-1.098,0.462c-0.232-0.115-0.146-0.781-0.348-0.896c-0.174-0.116-0.955,0.551-1.156,0.464
		c-0.174-0.088-0.203-0.435-0.465-0.464c-0.23-0.028-0.635,0.289-0.896,0.202c-0.52-0.202-1.156-0.115-1.938-1.968
		c-0.088-0.231-0.26-0.376-0.434-0.289c-0.465,0.173-0.289,0.347,0.346,1.621c0.869,1.679,1.969,1.33,6.077,2.749
		c2.431,0.867,3.934,1.128,4.136,1.447c0.176,0.318,0.348,0.752-0.346,0.811c-1.1,0.086-1.359-0.492-1.562-0.579
		c-0.262-0.087-0.436,0.202-0.955,0.116c-0.578-0.088-0.377-0.348-0.578-0.435c-0.261-0.029-0.783,0-1.129-0.058
		c-0.347-0.088-0.375-0.522-0.551-0.436c-0.201,0.087-0.375,0.436-0.982,0.261c-0.549-0.231-0.549-0.694-0.781-0.724
		c-0.145-0.058-0.926,0.376-1.273,0.291c-0.752-0.232-0.664-0.869-0.897-0.927c-0.259-0.029-0.347,0.665-1.968,0.55
		c-1.619-0.174-2.312-0.058-3.325-0.579c-1.36-0.723-2.952-0.636-2.489-1.273c0.52-0.666,1.332-0.317,1.852-0.058
		c0.521,0.202,1.099,0.608,1.505,0.376c0.146-0.116-0.175-0.578-0.318-1.216c-0.203-1.128,0.782-1.475,0.694-1.649
		c-0.146-0.203-0.694-0.492-2.025-0.289c-0.896,0.145-2.633,1.505-3.066,1.708c-0.434,0.26-2.227,1.215-3.211-0.203
		c-0.984-1.447-0.086-2.924,0.316-3.387c0.377-0.462,1.014-0.811,1.246-0.462c0.318,0.55-0.436,0.694-0.753,1.07
		c-0.29,0.376-0.751,1.649-0.231,2.229c0.549,0.578,1.562,0.636,2.719-0.232c0.955-0.724,2.518-1.736,4.051-1.621
		c1.562,0.088,2.373,0.811,2.605,0.869c0.23,0.028,0.432-0.492,0.75-0.607c0.232-0.088,0.551,0.201,0.752,0.115
		c0.176-0.115,0.377-0.58,0.609-0.666c0.26-0.087,0.896,0.348,1.1,0.202c0.172-0.087,0.144-0.636,0.434-0.665
		c0.289-0.059,0.781,0.463,0.984,0.376c0.26-0.146,0.26-0.435,0.52-0.435c0.203,0,0.666,0.695,0.896,0.637
		c0.174-0.029,0.117-0.723,0.377-0.811c0.26-0.087,0.926,0.463,1.158,0.377c0.173-0.087,0.201-0.926,0.52-1.1
		c0.289-0.116,0.58,0.348,0.754,0.261c0.23-0.087,0.375-1.042,0.636-1.071c0.231-0.029,0.694,0.261,0.896,0.203
		c0.173-0.029,0.086-0.897,0.435-1.071c0.346-0.116,0.781,0.435,0.896,0.405c0.174-0.058,0.26-0.521,0.434-0.551
		c0.203-0.058,0.724,0.377,0.983,0.319c0.202-0.087,0.115-0.724,0.347-0.753c0.175-0.058,0.898,0.088,0.839-0.724
		c-0.028-0.811-1.07-1.591-2.053-1.591c-1.795,0-3.587,0.78-5.122,1.07c-1.533,0.26-4.686,1.187-5.467,1.332
		c-0.781,0.115-1.534-0.319-0.841-0.869c0.552-0.521,0.841-0.115,0.841-0.289s-0.348-0.348-0.841-0.435
		c-0.521-0.086-1.128,0.435-1.794,0.347c-0.664-0.086-1.33-0.607-2.053-0.462c-1.766,0.202-2.025,0.983-2.922,1.302
		c-0.896,0.348-1.562,0.087-2.055,0.145c-1.215,0.174-1.65,0.897-2.545,0.811C38.52,17.018,38,16.41,36.841,16.091
		c-1.098-0.347-3.21-0.665-3.702-0.839c-0.521-0.202-2.807-0.752-3.355-0.81c-0.607-0.087-0.896,0.086-1.156,0.086
		c-0.291,0-0.667-0.173-1.072-0.202c-0.375-0.058-0.982-0.087-1.243,0c-0.231,0.116-0.32,0.116-0.636,0.029
		c-0.262-0.029-1.216-0.202-1.621-0.146c-0.578,0.029-0.812,0.406-1.246,0.464c-0.402,0.028-0.808-0.174-1.271-0.087
		c-0.463,0.087-0.838,0.261-1.245,0.376c-0.374,0.146-1.069,0.058-1.388,0.087c-0.867,0.202-0.984,0.637-1.301,0.637
		c-0.289,0-1.332-0.174-1.65,0c-0.346,0.145-0.637,0.404-0.896,0.434c-0.318,0.029-1.475,0.203-2.199,0.116
		c-0.404-0.029-1.1,0.319-1.389,0.406c-0.348,0.087-1.156,0.087-1.389-0.319c-0.23-0.492,0.404-1.215,1.477-2.084
		c0.721-0.549,4.803-3.414,11.428-4.485c5.18-0.868,11.226-3.038,12.498-4.37c0.551-0.55,2.777-2.432,3.326-3.588
		c0.551-1.158,0.724-1.824,0.434-1.795c-0.287,0.087-0.635,0.694-1.185,0.896c-0.522,0.174-0.983-0.115-1.39,0.059
		c-0.376,0.115-0.81,0.724-1.213,0.753c-0.436,0.058-0.611-0.319-0.93-0.175c-0.315,0.232-0.838,0.608-1.184,0.695
		c-0.725,0.115-0.752-0.724-1.418-0.376c-0.694,0.347-1.186,0.926-1.879,1.07c-0.638,0.087-0.552-0.405-0.986-0.405
		c-0.693,0-1.358,0.955-1.677,0.955c-0.317,0-0.579-0.521-0.983-0.463c-0.377,0.028-1.562,0.926-2.026,1.07
		c-0.491,0.088-0.577-0.665-0.983-0.607c-0.49,0.029-1.388,0.897-1.88,1.014c-0.521,0.086-0.81-0.261-1.157-0.261
		s-1.418,0.896-1.938,1.042c-0.752,0.173-0.81-0.781-1.62-0.725c-0.578,0.029-1.186,0.811-1.648,0.84
		c-0.492,0.058-0.695-0.318-1.246-0.203c-0.606,0.174-1.793,0.984-2.197,1.072c-0.377,0.086-0.666-0.146-1.129,0
		C9.705,6.513,8.894,7.67,8.345,7.96c-0.608,0.348-1.042,0.173-1.36,0.376C6.406,8.74,6.32,9.552,5.77,9.782
		c-0.492,0.262-0.463-0.115-0.926,0.175c-0.78,0.578-0.492,1.214-0.723,1.505c-0.232,0.289-0.869,0.52-1.245,0.984
		C2.5,12.879,2.5,13.14,2.355,13.429c-0.173,0.291-0.838,1.158-0.983,1.534c-0.087,0.376,0.087,0.781-0.087,1.071
		c-0.115,0.26-0.377,0.695-0.52,1.013c-0.232,0.752,0.086,1.505,0.057,1.794c-0.057,0.261-0.348,0.695-0.348,1.042
		s0.348,1.013,0.262,1.533c-0.088,0.521-1.158,3.966-0.551,5.528c0.666,1.621,1.65,2.489,1.997,2.344
		c0.376-0.115,0.144-0.811,0.521-1.446c0.376-0.608,0.811-1.361,1.157-0.839c0.29,0.492-0.694,0.492-0.781,1.909
		c-0.116,1.36,0.058,0.781,0,1.187c-0.03,0.436-0.896,1.245-0.896,1.621c0,0.404,0.087,1.419,1.358,2.488
		c0.782,0.694,0.954,1.158,1.158,1.187c0.174,0.06,0.348-0.81,0.723-0.983c0.521-0.232,1.65,0.781,1.853,0.752
		c0.261-0.086,0.347-1.477,0.81-1.736c0.463-0.203,1.592,0.694,1.824,0.579c0.23-0.174-0.029-1.042,0.086-1.39
		c0.145-0.318,0.781-0.404,0.578-0.984c-0.174-0.578-0.26-1.706-2.315-1.852C7.65,29.723,6.812,29.636,7.361,29
		c0.637-0.638,1.33-2.981-0.174-4.805c-0.637-0.781-2.084-0.347-2.488-0.174c-0.723,0.26-1.447,1.216-1.736,0.954
		c-0.26-0.259,0.578-1.33,1.881-1.707c1.273-0.404,2.893-0.317,3.529,1.273c1.129,2.778,0,4.081,0.145,4.37
		c0.174,0.289,0.81-0.029,1.707,0.521c1.273,0.839,1.1,1.562,1.418,1.823c0.289,0.231,1.822,0.348,3.24,0.434
		c1.447,0.087,3.037,0.463,3.703,0.087c1.069-0.55,1.157-2.604,3.646-4.109c1.244-0.753,2.892-1.505,4.744-1.188
		c2.055,0.29,2.082,0.58,1.91,0.84c-0.029,0.146-0.086,0.348-0.117,0.318c-0.982-0.521-2.4-0.578-3.268-0.405
		c-1.273,0.232-3.443,0.579-5.035,3.358c-1.562,2.777,0.955,2.806,1.216,2.894c0.288,0.115,0.753,0.26,0.724,1.071
		c-0.059,0.81,0.201,1.272,0.492,1.794c0.344,0.463,0.896,0.839,0.896,0.839s0.404-0.927,0.867-1.129
		c0.462-0.261,1.014,0.202,1.273,0.491c0.808,1.043,0.463-0.896,1.041-1.098c0.84-0.262,1.156,0.982,1.621,0.751
		c0.838-0.376,0.376-0.954,0.982-1.187c0.637-0.174,1.013,0.348,1.273,0.174c0.289-0.203,0.26-1.998-0.289-2.72
		c-0.608-0.753-1.506-2.026-3.414-2.026c-1.881,0-2.488-0.261-2.402-0.637c0.088-0.376,0.465-0.637,0.928-0.463
		c0.723,0.26,0.809,0.202,1.967,0.26c1.678,0.029,1.303,0.753,2.689,1.36c1.043,0.435,2.402-0.29,4.078,0
		c1.709,0.29,3.125,0.608,4.689,0.521c2.951-0.087,6.219-1.39,6.855-1.477c0.666-0.115,1.014-0.029,1.014-0.231
		c0-0.174-2.863-0.607-2.691-1.303c0.232-0.665,1.592-0.115,3.473,0.319c1.881,0.404,5.902,0.752,7.465,0.665
		c1.678-0.028,4.541,0.724,6.885,0.174c1.188-0.289,2.314-1.013,2.432-1.823C64.676,27.003,63.604,26.396,63.372,26.222z
		 M47.229,16.294c0.461-0.087,1.272,0.116,1.069,0.637c-0.175,0.521-0.26,0.434-0.635,0.521c-0.377,0.087-1.158,0.174-1.361-0.174
		C46.129,16.931,46.708,16.41,47.229,16.294z M35.455,2.952c0.288,0.145,0.316,0.551,0.288,0.812
		c-0.088,0.231-0.231,0.463-0.376,0.463c-0.232,0-0.232-0.319-0.318-0.638C34.96,3.329,35.135,2.779,35.455,2.952z M32.793,3.764
		c0.606,0.144,0.375,0.694,0.26,1.33c-0.088,0.435-0.463,0.551-0.521,0.638c-0.202,0.376-0.26-1.273-0.26-1.273
		S32.445,3.677,32.793,3.764z M29.841,4.227c0.231-0.029,0.637,0.867,0.405,1.649c-0.26,0.753-0.58,0.753-0.58,0.753
		s-0.086-0.84-0.173-0.927C29.407,5.558,29.234,4.371,29.841,4.227z M27.18,4.66c0.549-0.202,0.693,1.042,0.434,1.679
		c-0.231,0.666-0.231,1.071-0.637,0.811c-0.492-0.231-0.087-1.042-0.233-1.273C26.572,5.47,26.717,4.892,27.18,4.66z M24.229,5.354
		c0.693-0.086,0.607,1.013,0.434,1.621c-0.202,0.549-0.346,0.811-0.636,0.724c-0.319-0.116,0.087-0.84-0.088-1.157
		C23.707,6.253,23.852,5.384,24.229,5.354z M21.19,5.905c0.405,0.087,0.694,0.694,0.492,1.533c-0.174,0.869-0.435,1.07-0.667,1.07
		c-0.23,0,0.088-1.359-0.115-1.359C20.728,7.149,20.699,5.818,21.19,5.905z M18.211,6.918c0.26,0,0.838,0.492,0.549,1.39
		c-0.289,0.925-0.289,0.839-0.549,0.925c-0.291,0.058-0.088-0.55-0.262-0.896C17.748,8.046,17.486,6.889,18.211,6.918z M15.52,7.872
		c0.521-0.029,0.723,1.071,0.607,1.535c-0.086,0.463-0.26,1.041-0.578,0.954c-0.289-0.058,0.059-0.896-0.204-0.896
		C15.145,9.465,14.738,7.901,15.52,7.872z M13.812,11.027c-0.348,0.636-0.318,0.636-0.549,0.636c-0.232,0-0.088-0.925-0.348-0.925
		c-0.23,0-0.434-1.36,0.289-1.419C13.986,9.29,14.016,10.564,13.812,11.027z M12.655,6.687c0.174,0,0.608,0.289,0.202,0.724
		c-0.375,0.433-0.404,0.723-0.752,0.55C11.758,7.843,12.105,6.716,12.655,6.687z M2.818,15.831c0.23,0,0.521,0.579,0.491,0.812
		c-0.058,0.172-0.085,0.462-0.434,0.549c-0.317,0.087-0.434-0.434-0.434-0.521C2.414,16.556,2.326,15.773,2.818,15.831z
		 M3.166,19.622c-0.175,0-0.377,0-0.521-0.115c-0.087-0.146-0.665-0.724-0.231-1.302c0.028-0.087,0.752,0.404,0.896,0.724
		C3.398,19.159,3.398,19.622,3.166,19.622z M3.773,14.79c-0.088,0.144-0.317,0.23-0.464,0.144c-0.23-0.144-0.23-0.607-0.144-0.694
		c0.059-0.029,0.086-0.723,0.549-0.637c0.232,0.029-0.029,0.607,0,0.666C3.773,14.355,3.889,14.674,3.773,14.79z M23.041,17.741
		c0.029-0.202,0.348-0.377,0.666-0.289c0.406,0.029,0.867,0.376,0.781,0.637c-0.028,0.26-0.462,0.463-0.896,0.26
		C23.215,18.176,22.955,18.002,23.041,17.741z M23.621,19.622c0.26-0.028,0.953-0.086,0.896,0.289
		c-0.029,0.348-0.201,0.435-0.752,0.521c-0.551,0.088-0.896-0.26-0.896-0.434C22.898,19.71,23.332,19.681,23.621,19.622z
		 M22.174,15.658c0.319,0,0.607,0.26,0.52,0.462c-0.086,0.203-0.115,0.463-0.692,0.348c-0.203-0.086-0.464-0.377-0.464-0.55
		C21.537,15.571,21.885,15.601,22.174,15.658z M19.049,16.382c0.058-0.291,0.606-0.348,0.869-0.232
		c0.289,0.145,0.463,0.521,0.289,0.694c-0.203,0.145-0.406,0.087-0.752,0C19.106,16.758,19.02,16.671,19.049,16.382z M18.673,17.713
		c0.434,0,0.956,0.318,0.724,0.55c-0.174,0.174-0.348,0.289-0.811,0.289s-0.637-0.174-0.637-0.434
		C17.949,17.886,18.239,17.655,18.673,17.713z M17.92,19.622c0.493-0.086,0.84,0.203,0.811,0.464c0,0.26-0.434,0.492-0.723,0.492
		c-0.347,0-0.84-0.087-0.898-0.492C17.053,19.738,17.661,19.681,17.92,19.622z M16.59,21.938c-0.086-0.261,0.52-0.376,0.811-0.435
		c0.261-0.028,0.811,0.088,0.723,0.349c-0.086,0.202-0.26,0.463-0.723,0.463C16.938,22.286,16.676,22.141,16.59,21.938z
		 M17.314,23.558c-0.088,0.378-0.435,0.435-0.695,0.464c-0.289,0.058-0.752,0-0.752-0.289c0-0.318,0.404-0.551,0.637-0.637
		C16.967,23.009,17.4,23.269,17.314,23.558z M16.041,16.468c0.174,0.029,0.723,0.175,0.752,0.434c0,0.203,0.145,0.493-0.463,0.493
		c-0.55,0-0.781-0.087-0.896-0.377C15.26,16.671,15.867,16.41,16.041,16.468z M15.953,18.523c0.58,0.114,0.666,0.114,0.723,0.376
		c0.029,0.26-0.404,0.434-0.896,0.52c-0.521,0.088-0.812-0.144-0.954-0.403C14.738,18.783,15.375,18.437,15.953,18.523z
		 M14.969,20.896c0.291-0.028,0.639,0.087,0.639,0.406c-0.059,0.26-0.232,0.375-0.521,0.492c-0.26,0.144-0.838-0.088-0.927-0.291
		C14.074,21.302,14.652,20.954,14.969,20.896z M14.449,23.298c0,0.26-0.521,0.463-0.781,0.521c-0.203,0.029-0.376,0.202-0.551,0.029
		c-0.201-0.175-0.172-0.349-0.028-0.464c0.087-0.116,0.638-0.376,0.752-0.434C14.074,22.864,14.478,23.096,14.449,23.298z
		 M13.264,17.134c0.463,0,0.665,0.261,0.752,0.492c0.059,0.202,0,0.318-0.117,0.405c-0.086,0.087-0.606,0.058-0.895-0.116
		C12.598,17.713,12.742,17.134,13.264,17.134z M10.949,10.738c0.635-0.058,0.752,0.81,0.607,1.592
		c-0.232,0.752-0.318,0.752-0.607,0.665c-0.262-0.087,0-0.521-0.174-0.724C10.572,12.098,10.225,10.767,10.949,10.738z
		 M10.484,7.497c0.58-0.087,0.377,0.636,0.262,0.839c-0.174,0.261,0.029,0.637-0.348,0.607c-0.404-0.058-0.348-0.549-0.404-0.811
		C9.966,7.843,10.139,7.524,10.484,7.497z M8.432,10.102c0.115-0.174,0.203-0.608,0.577-0.637c0.261-0.058,0.175,0.665,0.146,1.013
		c0,0.348,0.088,0.781-0.376,0.607C8.287,10.911,8.287,10.304,8.432,10.102z M6.637,10.188c0.088,0,0.088-0.059,0.088-0.059
		s0.404-0.665,0.811-0.463c0.173,0.029-0.261,0.868-0.318,1.014c-0.088,0.23-0.377,0.404-0.637,0.174
		C6.32,10.593,6.551,10.188,6.637,10.188z M5.422,11.722c0.232,0.087,0,0.839-0.086,1.187c-0.029,0.348-0.289,0.521-0.549,0.435
		c-0.262-0.028-0.117-0.638-0.203-0.638C4.525,12.647,4.873,11.635,5.422,11.722z M4.584,17.481
		c0.174,0.058,0.203,0.404,0.203,0.463c0,0.145,0.173,0.231,0.26,0.492c0.057,0.201-0.087,0.404-0.289,0.463
		c-0.232,0-0.435-0.436-0.435-0.436C4.323,18.523,4.15,17.452,4.584,17.481z M5.307,21.04c-0.174,0.116-0.376,0.203-0.637,0.174
		c-0.26-0.087-0.549-0.52-0.318-0.781c0.232-0.203,0.579-0.029,0.752,0.088C5.277,20.665,5.48,20.896,5.307,21.04z M5.393,16.149
		c-0.346-0.059-0.201-0.724-0.26-0.724c0,0,0.348-1.187,0.693-0.983c0.262,0.174,0.117,0.955,0.088,1.331
		C5.855,16.12,5.684,16.236,5.393,16.149z M6.029,18.349c-0.115-0.057-0.26-0.81,0.262-0.867c0.202,0,0.549,0.404,0.549,0.637
		c-0.028,0.26,0.059,0.607-0.434,0.578C5.943,18.638,6.117,18.378,6.029,18.349z M7.274,22.054c-0.175,0-0.521-0.029-0.724-0.348
		c-0.175-0.231-0.23-0.637,0-0.752c0.174-0.087,0.637,0.202,0.839,0.607C7.621,21.938,7.39,22.054,7.274,22.054z M7.881,20.606
		c-0.23-0.028-0.491-0.115-0.693-0.377c-0.203-0.23-0.203-0.723,0.115-0.781c0.492-0.087,0.781,0.349,0.954,0.725
		C8.373,20.578,8.026,20.606,7.881,20.606z M8.345,18.552c-0.231,0-0.347-0.088-0.464-0.26c-0.173-0.116-0.23-0.637,0.232-0.637
		c0.231,0,0.578,0.173,0.607,0.434C8.778,18.378,8.547,18.523,8.345,18.552z M8.778,12.705c0.319,0,0.897,0.348,0.724,1.361
		c-0.232,0.983-0.348,0.636-0.551,0.694c-0.173,0.087-0.058-0.551-0.173-0.694C8.547,13.806,7.998,12.705,8.778,12.705z
		 M9.357,22.228c-0.203-0.087-0.464-0.203-0.492-0.521c-0.087-0.29,0.232-0.376,0.492-0.318c0.318,0.028,0.551,0.289,0.551,0.492
		C9.908,22.141,9.531,22.286,9.357,22.228z M9.908,20.229c-0.146,0.029-0.232,0.116-0.551,0.029c-0.289-0.115-0.897-0.752-0.349-1.1
		c0.175-0.144,0.841,0.029,0.985,0.521C10.225,20.086,10.08,20.144,9.908,20.229z M9.966,18.263
		c-0.087-0.087,0.085-0.55,0.548-0.435c0.436,0.087,0.551,0.377,0.521,0.636c-0.086,0.262-0.376,0.262-0.607,0.232
		C10.225,18.638,10.08,18.349,9.966,18.263z M11.701,23.298c-0.145,0.087-0.463,0.174-0.896,0.116
		c-0.377-0.029-0.464-0.146-0.32-0.376c0.175-0.203,0.291-0.262,0.637-0.377c0.348-0.145,0.754,0.028,0.839,0.174
		C12.047,22.951,11.875,23.269,11.701,23.298z M12.277,21.416c-0.23,0.146-0.721,0-0.867-0.347
		c-0.113-0.375,0.088-0.463,0.262-0.549c0.203-0.029,0.693,0.202,0.781,0.52C12.482,21.243,12.482,21.302,12.277,21.416z
		 M12.742,19.738c-0.202,0-0.955-0.116-0.811-0.492c0.086-0.405,0.521-0.405,0.754-0.347c0.144,0,0.752,0.202,0.606,0.549
		C13.205,19.825,12.945,19.71,12.742,19.738z M19.396,26.567c0,0.203-0.115,0.348-0.29,0.348c-0.202,0-0.78-0.145-1.069,0.088
		c-0.289,0.201-0.463,0.578-0.434,0.839c0.058,0.202,0.058,0.521-0.088,0.607c-0.115,0.116-0.665-0.087-0.896-0.058
		c-0.201,0-0.926,0.174-1.1,0.55c-0.203,0.347-0.057,0.607-0.175,0.694c-0.114,0.145-0.288,0.203-0.462,0.203
		c-0.173,0.058-0.954-0.059-1.07,0.058c-0.174,0.115-0.607,0.638-0.724,0.463c-0.144-0.174-0.347-0.087,0.028-0.724
		c0.175-0.289,0.639-0.606,0.695-0.606c0.028,0,0.607,0.056,0.723-0.029c0.117-0.117,0.463-0.812,0.609-0.956
		c0.578-0.463,0.549-0.289,0.723-0.376c0.174-0.029,0.752,0.087,0.809-0.029c0.088-0.173,0.434-0.811,0.725-1.071
		c0.377-0.346,0.984-0.404,1.07-0.463c0.029-0.086,0.174-0.317,0.26-0.491c0.116-0.174,0.637-0.608,0.984-0.521
		c0.174,0.058-0.434,0.869-0.434,1.042C19.223,26.308,19.396,26.337,19.396,26.567z M20.555,23.5
		c-0.029,0.146-0.291,0.521-0.725,0.608s-0.896,0.058-0.926-0.173c-0.058-0.175,0.087-0.436,0.377-0.551
		c0.259-0.116,0.52-0.028,0.723-0.028C20.177,23.356,20.612,23.356,20.555,23.5z M20.438,22.141
		c-0.492,0.058-0.953-0.087-0.897-0.289c0.089-0.232,0.378-0.436,0.812-0.436c0.434-0.028,0.723,0.087,0.723,0.29
		C21.074,21.88,20.9,22.111,20.438,22.141z M20.844,20.259c-0.318,0-0.955-0.086-0.955-0.578c0-0.232,0.666-0.348,0.811-0.348
		c0.145-0.058,0.752,0.115,0.723,0.464C21.336,20.144,21.162,20.229,20.844,20.259z M21.162,18.349
		c-0.318-0.086-0.725-0.144-0.695-0.434c0-0.174,0.261-0.434,0.724-0.376c0.492,0,0.724,0.202,0.694,0.405
		C21.826,18.205,21.451,18.437,21.162,18.349z M23.418,23.558c-0.115,0.116-0.262,0.435-0.609,0.521
		c-0.315,0.029-0.721,0.174-0.895-0.23c-0.088-0.203,0.057-0.377,0.318-0.551c0.203-0.116,0.896-0.116,0.896-0.116
		s0.086-0.23,0.26-0.086C23.561,23.211,23.561,23.414,23.418,23.558z M24.229,22.024c-0.29,0-0.986,0.029-1.014-0.318
		c-0.086-0.145,0.377-0.318,0.666-0.404c0.348-0.088,0.579-0.088,0.693-0.059c0.116,0.059,0.435,0.173,0.435,0.318
		C25.009,21.706,24.488,21.967,24.229,22.024z M25.473,16.729c-0.289,0.028-0.782-0.232-0.869-0.493
		c-0.115-0.289-0.144-0.55-0.029-0.665c0.203-0.146,0.898,0.115,1.014,0.434C25.761,16.294,25.761,16.643,25.473,16.729z
		 M25.646,17.915c-0.058-0.26,0.462-0.463,0.81-0.434c0.288,0.058,0.812,0.347,0.725,0.637c-0.115,0.318-0.174,0.405-0.437,0.405
		C26.484,18.523,25.676,18.349,25.646,17.915z M25.906,19.97c-0.059-0.231,0.463-0.348,0.666-0.348c0.171,0,0.953,0.116,0.725,0.435
		c-0.146,0.289-0.465,0.435-0.725,0.435C26.369,20.491,25.991,20.173,25.906,19.97z M27.469,22.401
		c-0.289,0.201-0.492,0.201-0.839,0.201c-0.318,0-0.376-0.201-0.376-0.462c0-0.203,0.318-0.347,0.463-0.376
		c0.173-0.059,0.376,0,0.551-0.059c0.114-0.029,0.114-0.029,0.287-0.087c0.146-0.028,0.232-0.058,0.262,0.175
		C27.873,22.024,27.787,22.228,27.469,22.401z M28.047,16.556c-0.145,0.087-0.145,0.174-0.434,0.115
		c-0.346-0.028-0.521-0.551-0.607-0.58c-0.116-0.057-0.376-0.347-0.263-0.49c0.146-0.117,0.782-0.117,1.073,0.144
		C28.164,16.034,28.164,16.468,28.047,16.556z M28.684,17.741c0.086-0.086,0.29-0.202,0.551-0.202c0.259,0,0.606,0.174,0.722,0.347
		c0.089,0.203,0.089,0.377-0.087,0.551c-0.115,0.115-0.896-0.088-1.012-0.231C28.684,18.031,28.627,17.886,28.684,17.741z
		 M28.887,20.346c-0.086,0.087-0.117-0.202,0-0.347c0.172-0.116,0.549-0.318,0.779-0.318c0.203,0,0.551,0.058,0.493,0.23
		c-0.028,0.175-0.087,0.609-0.55,0.609C29.145,20.578,28.974,20.317,28.887,20.346z M29.783,22.487
		c-0.376,0.029-0.639-0.028-0.694-0.347c-0.03-0.289,0.261-0.376,0.318-0.376c0.028,0,0.347-0.059,0.434-0.088
		c0.204,0,0.55-0.261,0.724,0C30.65,21.852,30.159,22.401,29.783,22.487z M30.42,16.988c-0.434-0.145-0.637-0.346-0.754-0.521
		c-0.086-0.174-0.403-0.434-0.144-0.694c0.144-0.115,0.81,0.145,1.128,0.376c0.261,0.261,0.404,0.318,0.376,0.493
		C30.969,16.758,30.854,17.104,30.42,16.988z M31.316,17.886c0.088-0.173,0.434-0.26,0.695-0.26c0.26,0.029,0.605,0.115,0.664,0.405
		c0.059,0.261,0,0.347-0.086,0.492c-0.145,0.114-0.666-0.06-0.868-0.146C31.49,18.292,31.229,18.002,31.316,17.886z M31.375,19.883
		c0-0.202,0.289-0.173,0.434-0.202c0.059-0.059,0.145-0.145,0.377-0.174c0.172-0.059,0.549-0.059,0.549,0.115
		c0.059,0.116,0,0.377-0.463,0.521C31.75,20.317,31.404,20.086,31.375,19.883z M33.053,21.794c0,0-0.377,0.347-0.463,0.492
		c-0.145,0.086-0.376,0.316-0.723,0.028c-0.203-0.203,0-0.55,0.145-0.638c0.115-0.115,0.982-0.637,1.156-0.375
		C33.312,21.562,33.053,21.794,33.053,21.794z M33.574,16.671c-0.175,0.26-0.436,0.23-0.754,0.173
		c-0.289-0.029-0.809-0.376-0.78-0.724c0.058-0.289,0.577-0.202,0.867-0.086C33.227,16.149,33.775,16.41,33.574,16.671z
		 M37.016,20.665c-0.175,0-0.608-0.436,0.088-0.521c0.261-0.058,0.289,0.115,0.289,0.377C37.393,20.723,37.161,20.665,37.016,20.665
		z M37.393,18.638c-0.289-0.086-0.406-0.201-0.231-0.433c0.203-0.174,0.288-0.116,0.55-0.029c0.2,0.087,0.26,0.261,0.2,0.434
		C37.883,18.812,37.711,18.726,37.393,18.638z M39.041,24.891c-0.406-0.087-0.781-0.58-0.983-0.869
		c-0.175-0.348-0.231-0.983-0.087-1.273c0.115-0.347,0.289-0.376,0.463-0.261c0.201,0.115,0.086,0.984,0.201,1.013
		c0.146,0.087,0.232,0.695,0.607,0.781c0.117,0,0.262,0.29,0.262,0.29S39.359,24.976,39.041,24.891z"/>
	<path fill-rule="evenodd" clip-rule="evenodd" fill="#989898" d="M32.459,51.225c3.012,0,5.452-2.669,5.452-5.961
		c0-3.293-2.44-5.962-5.452-5.962s-5.453,2.669-5.453,5.962C27.006,48.556,29.447,51.225,32.459,51.225L32.459,51.225z
		 M32.459,48.567c-1.453,0-2.232-1.479-2.232-3.304c0-1.825,0.693-3.304,2.232-3.304s2.231,1.479,2.231,3.304
		C34.69,47.088,33.914,48.567,32.459,48.567L32.459,48.567z M8.488,50.949h1.396c0.385,0,0.71-0.252,0.805-0.627l0.301-1.186
		c0.047-0.188,0.209-0.313,0.402-0.313h2.611c0.195,0,0.355,0.125,0.403,0.313l0.301,1.186c0.095,0.375,0.419,0.627,0.805,0.627
		h1.396c0.557,0,0.955-0.536,0.795-1.069l-2.926-9.785c-0.107-0.357-0.424-0.592-0.797-0.592h-2.563
		c-0.374,0-0.69,0.234-0.798,0.592L7.693,49.88C7.533,50.413,7.932,50.949,8.488,50.949L8.488,50.949z M13.488,46.495h-1.58
		c-0.125,0-0.221-0.122-0.189-0.242l0.892-3.53c0.022-0.081,0.155-0.081,0.175,0l0.891,3.53
		C13.708,46.373,13.613,46.495,13.488,46.495L13.488,46.495z M17.703,45.264L17.703,45.264c0,3.293,2.44,5.961,5.453,5.961
		c1.437,0,2.744-0.607,3.719-1.601c0.172-0.175,0.166-0.459,0.001-0.638l-1.095-1.196c-0.221-0.238-0.556-0.171-0.79,0.054
		c-0.531,0.513-0.954,0.724-1.835,0.724c-1.539,0-2.234-1.479-2.234-3.303v-0.001l0,0c0-1.825,0.695-3.304,2.234-3.304
		c0.881,0,1.304,0.21,1.835,0.723c0.234,0.225,0.569,0.294,0.79,0.055l1.095-1.195c0.165-0.181,0.171-0.463-0.001-0.639
		c-0.975-0.994-2.282-1.602-3.719-1.602C20.144,39.302,17.703,41.971,17.703,45.264L17.703,45.264L17.703,45.264z M43.977,47.677
		c0,0.686-0.537,1.059-1.269,1.059c-0.921,0-1.519-0.551-2.071-1.116c-0.293-0.3-0.781-0.29-1.09-0.007l-0.688,0.623
		c-0.267,0.244-0.466,0.652-0.239,0.934c0.74,0.916,1.844,1.956,4.506,1.956c2.365,0,3.842-1.648,3.842-3.425
		c0-1.449-0.611-2.408-2.342-3.292l-1.793-0.853c-0.764-0.202-1.089-0.478-1.089-0.977c0-0.527,0.372-0.852,0.979-0.852
		c0.716,0,1.317,0.444,1.858,0.879c0.318,0.256,0.787,0.194,1.064-0.104l0.717-0.775c0.248-0.269,0.34-0.719,0.078-0.974
		c-0.864-0.838-2.154-1.467-3.92-1.467c-2.498,0-3.97,1.548-3.97,3.431c0,1.587,0.771,2.411,2.447,3.176l2.058,0.881
		C43.708,46.976,43.977,47.227,43.977,47.677L43.977,47.677z M62.666,43.872h-2.031c-0.23,0-0.416-0.187-0.416-0.415v-0.833
		c0-0.229,0.186-0.416,0.416-0.416h2.994c0.459,0,0.831-0.373,0.831-0.831v-1.043c0-0.46-0.372-0.831-0.831-0.831h-5.736
		c-0.459,0-0.831,0.371-0.831,0.831v9.784c0,0.459,0.372,0.831,0.831,0.831h5.736c0.459,0,0.831-0.372,0.831-0.831v-1.043
		c0-0.46-0.372-0.832-0.831-0.832h-2.994c-0.23,0-0.416-0.187-0.416-0.416v-0.833c0-0.229,0.186-0.415,0.416-0.415h1.125h0.906
		c0.458,0,0.831-0.372,0.831-0.832v-1.043C63.497,44.245,63.124,43.872,62.666,43.872L62.666,43.872z M50.983,50.949h1.494
		c0.46,0,0.832-0.372,0.832-0.831v-7.494c0-0.229,0.186-0.416,0.417-0.416h1.678c0.459,0,0.832-0.373,0.832-0.831v-1.043
		c0-0.46-0.373-0.831-0.832-0.831h-7.346c-0.459,0-0.832,0.371-0.832,0.831v1.043c0,0.458,0.373,0.831,0.832,0.831h1.678
		c0.23,0,0.416,0.187,0.416,0.416v7.494C50.152,50.577,50.525,50.949,50.983,50.949L50.983,50.949z M6.256,48.236H4.022
		c-0.229,0-0.415-0.187-0.415-0.417v-7.485c0-0.46-0.373-0.831-0.832-0.831H1.281c-0.459,0-0.832,0.371-0.832,0.831v9.783
		c0,0.459,0.373,0.832,0.832,0.831l4.317-0.004l0.658-0.002c0.458,0,0.831-0.372,0.831-0.83v-1.045
		C7.088,48.608,6.715,48.236,6.256,48.236L6.256,48.236z"/>
</g>
</svg>
