<?xml version="1.0" encoding="utf-8"?>
<!-- Generator: Adobe Illustrator 16.0.4, SVG Export Plug-In . SVG Version: 6.00 Build 0)  -->
<!DOCTYPE svg PUBLIC "-//W3C//DTD SVG 1.1//EN" "http://www.w3.org/Graphics/SVG/1.1/DTD/svg11.dtd">
<svg version="1.1" id="Layer_1" xmlns="http://www.w3.org/2000/svg" xmlns:xlink="http://www.w3.org/1999/xlink" x="0px" y="0px"
	 width="42.477px" height="42.479px" viewBox="0 0 42.477 42.479" enable-background="new 0 0 42.477 42.479" xml:space="preserve">
<g>
	<path fill-rule="evenodd" clip-rule="evenodd" fill="#989898" d="M21.236,0c11.697,0,21.24,9.539,21.24,21.236
		c0,11.699-9.543,21.243-21.24,21.243C9.541,42.479,0,32.936,0,21.236C0,9.539,9.541,0,21.236,0L21.236,0z M11.977,5.935
		c-2.059,1.252-3.848,2.909-5.256,4.859l8.186,19.331l3.672-8.131h5.324l3.668,8.131l8.184-19.331
		c-1.406-1.95-3.193-3.605-5.248-4.859l-6.604,14.839h-5.328L11.977,5.935L11.977,5.935z M26.371,4.092
		c-1.625-0.486-3.35-0.75-5.135-0.75c-1.783,0-3.504,0.264-5.129,0.75l5.131,11.503L26.371,4.092L26.371,4.092z M4.109,16.057
		c-0.498,1.643-0.768,3.383-0.768,5.18c0,7.178,4.256,13.385,10.375,16.234L4.109,16.057L4.109,16.057z M16.057,38.369
		c1.643,0.498,3.381,0.768,5.18,0.768c1.803,0,3.543-0.271,5.186-0.771l-5.184-11.261L16.057,38.369L16.057,38.369z M28.76,37.471
		c6.117-2.85,10.377-9.061,10.377-16.234c0-1.797-0.27-3.535-0.768-5.178L28.76,37.471z"/>
</g>
</svg>
